<svg xmlns="http://www.w3.org/2000/svg" xmlns:xlink="http://www.w3.org/1999/xlink" version="1.1" width="256" height="256" viewBox="0 0 256 256" xml:space="preserve">

<defs>
</defs>
<g style="stroke: none; stroke-width: 0; stroke-dasharray: none; stroke-linecap: butt; stroke-linejoin: miter; stroke-miterlimit: 10; fill: none; fill-rule: nonzero; opacity: 1;" transform="translate(1.4065934065934016 1.4065934065934016) scale(2.81 2.81)" >
	<path d="M 46.261 72.964 c 8.502 -0.44 15.836 -5.298 19.75 -12.322 c 5.882 -15.559 1.435 -26.313 -10.78 -33.438 c -2.675 -1.26 -5.62 -2.042 -8.725 -2.234 c -11.261 0.586 -19.063 5.962 -23.953 15.373 c -1.028 2.675 -1.591 5.58 -1.591 8.617 c 0 10.786 7.104 19.913 16.889 22.956 C 40.66 72.516 43.464 72.875 46.261 72.964 z" style="stroke: none; stroke-width: 1; stroke-dasharray: none; stroke-linecap: butt; stroke-linejoin: miter; stroke-miterlimit: 10; fill: rgb(90,170,231); fill-rule: nonzero; opacity: 1;" transform=" matrix(1 0 0 1 0 0) " stroke-linecap="round" />
	<path d="M 43.4 31.968 c 1.737 -1.926 2.824 -4.416 3.106 -6.992 c -0.499 -0.031 -1 -0.052 -1.507 -0.052 c -10.238 0 -18.975 6.404 -22.44 15.422 c -0.087 2.271 -0.055 4.498 1.006 6.462 c 1.246 2.307 3.648 3.709 5.926 5.007 c 1.082 0.616 2.22 1.294 2.788 2.402 c 0.38 0.74 0.46 1.595 0.732 2.381 c 1.089 3.152 5.008 4.732 5.88 7.951 c 0.541 1.998 -0.247 4.078 -0.673 6.104 c -0.091 0.432 -0.159 0.869 -0.216 1.306 c 2.214 0.673 4.563 1.038 6.997 1.038 c 0.423 0 0.844 -0.012 1.262 -0.033 c 0.402 -0.703 0.693 -1.495 1.035 -2.234 c 0.672 -1.452 1.613 -2.778 2.761 -3.892 c 1.61 -1.561 3.616 -2.702 5.06 -4.417 c 0.862 -1.023 1.521 -2.356 1.261 -3.668 c -0.361 -1.819 -2.294 -2.863 -4.096 -3.302 c -1.802 -0.439 -3.759 -0.564 -5.277 -1.629 c -1.033 -0.724 -1.756 -2.365 -2.77 -3.115 c -3.447 -2.549 -9.936 0.217 -13.429 -2.268 c -0.44 -0.313 -0.843 -0.707 -1.052 -1.205 c -0.174 -0.414 -0.205 -0.874 -0.197 -1.323 c 0.043 -2.395 2.284 -4.748 4.147 -6.255 c 0.134 -0.109 0.275 -0.215 0.438 -0.274 c 0.576 -0.21 1.192 0.232 1.535 0.739 c 0.343 0.508 0.011 2.755 0.47 3.161 c 0.459 0.406 1.314 0.466 1.588 -0.082 c 0.127 -0.254 0.636 -2.194 0.609 -2.476 c -0.122 -1.288 0.052 -2.619 0.614 -3.784 C 39.928 34.927 41.905 33.627 43.4 31.968 z" style="stroke: none; stroke-width: 1; stroke-dasharray: none; stroke-linecap: butt; stroke-linejoin: miter; stroke-miterlimit: 10; fill: rgb(145,220,90); fill-rule: nonzero; opacity: 1;" transform=" matrix(1 0 0 1 0 0) " stroke-linecap="round" />
	<path d="M 69.036 48.961 c 0 -9.616 -5.648 -17.909 -13.806 -21.752 c 0.149 0.227 0.303 0.449 0.446 0.68 c 0.702 1.133 1.34 2.348 1.5 3.671 c 0.403 3.342 -2.292 6.388 -2.235 9.753 c 0.048 2.79 2.257 5.392 5.003 5.89 c 1.002 0.182 2.033 0.11 3.045 0.23 c 1.012 0.12 2.067 0.479 2.671 1.299 c 0.476 0.646 0.602 1.478 0.686 2.276 c 0.338 3.206 0.215 6.457 -0.338 9.633 C 67.934 57.182 69.036 53.201 69.036 48.961 z" style="stroke: none; stroke-width: 1; stroke-dasharray: none; stroke-linecap: butt; stroke-linejoin: miter; stroke-miterlimit: 10; fill: rgb(145,220,90); fill-rule: nonzero; opacity: 1;" transform=" matrix(1 0 0 1 0 0) " stroke-linecap="round" />
	<path d="M 45 90 C 22.52 90 4.231 71.711 4.231 49.231 c 0 -16.072 9.494 -30.691 24.187 -37.243 c 0.257 -0.117 0.559 0.001 0.674 0.258 c 0.115 0.257 0 0.56 -0.258 0.674 c -14.326 6.388 -23.582 20.64 -23.582 36.31 c 0 21.917 17.831 39.748 39.747 39.748 c 21.917 0 39.748 -17.831 39.748 -39.748 c 0 -15.67 -9.256 -29.922 -23.583 -36.31 c -0.257 -0.115 -0.373 -0.417 -0.258 -0.674 c 0.116 -0.258 0.418 -0.374 0.675 -0.258 c 14.694 6.552 24.187 21.171 24.187 37.243 C 85.769 71.711 67.48 90 45 90 z" style="stroke: none; stroke-width: 1; stroke-dasharray: none; stroke-linecap: butt; stroke-linejoin: miter; stroke-miterlimit: 10; fill: rgb(96,96,96); fill-rule: nonzero; opacity: 1;" transform=" matrix(1 0 0 1 0 0) " stroke-linecap="round" />
	<path d="M 47.969 0.472 c 1.39 0.452 2.699 1.222 3.803 2.326 c 3.74 3.74 3.74 9.804 0 13.544 c -1.104 1.104 -2.413 1.874 -3.803 2.326 c -1.39 -0.452 -3.688 -1.222 -4.793 -2.326 c -3.74 -3.74 -3.74 -9.804 0 -13.544 C 44.281 1.694 46.58 0.925 47.969 0.472 z" style="stroke: none; stroke-width: 1; stroke-dasharray: none; stroke-linecap: butt; stroke-linejoin: miter; stroke-miterlimit: 10; fill: rgb(96,96,96); fill-rule: nonzero; opacity: 1;" transform=" matrix(1 0 0 1 0 0) " stroke-linecap="round" />
	<path d="M 38.228 2.798 c 2.636 -2.636 6.424 -3.405 9.742 -2.326 c -1.39 0.452 -2.699 1.222 -3.803 2.326 c -3.74 3.74 -3.74 9.804 0 13.544 c 1.104 1.104 2.413 1.874 3.803 2.326 c -3.318 1.08 -7.106 0.31 -9.742 -2.326 C 34.487 12.602 34.487 6.538 38.228 2.798 z" style="stroke: none; stroke-width: 1; stroke-dasharray: none; stroke-linecap: butt; stroke-linejoin: miter; stroke-miterlimit: 10; fill: rgb(255,241,136); fill-rule: nonzero; opacity: 1;" transform=" matrix(1 0 0 1 0 0) " stroke-linecap="round" />
</g>
</svg>