<svg xmlns="http://www.w3.org/2000/svg" xmlns:xlink="http://www.w3.org/1999/xlink" version="1.1" width="256" height="256" viewBox="0 0 256 256" xml:space="preserve">

<defs>
</defs>
<g style="stroke: none; stroke-width: 0; stroke-dasharray: none; stroke-linecap: butt; stroke-linejoin: miter; stroke-miterlimit: 10; fill: none; fill-rule: nonzero; opacity: 1;" transform="translate(1.4065934065934016 1.4065934065934016) scale(2.81 2.81)" >
	<path d="M 46.235 72.822 c 8.324 -0.43 15.505 -5.187 19.336 -12.064 c 5.759 -15.233 1.405 -25.762 -10.554 -32.738 c -2.619 -1.234 -5.503 -1.999 -8.542 -2.187 C 35.45 26.407 27.811 31.67 23.024 40.884 c -1.006 2.619 -1.557 5.463 -1.557 8.437 c 0 10.56 6.955 19.496 16.535 22.475 C 40.751 72.383 43.496 72.734 46.235 72.822 z" style="stroke: none; stroke-width: 1; stroke-dasharray: none; stroke-linecap: butt; stroke-linejoin: miter; stroke-miterlimit: 10; fill: rgb(90,170,231); fill-rule: nonzero; opacity: 1;" transform=" matrix(1 0 0 1 0 0) " stroke-linecap="round" />
	<path d="M 43.434 32.684 c 1.7 -1.886 2.765 -4.324 3.041 -6.846 c -0.488 -0.03 -0.979 -0.051 -1.475 -0.051 c -10.024 0 -18.578 6.269 -21.97 15.099 c -0.086 2.224 -0.054 4.404 0.984 6.326 c 1.22 2.259 3.571 3.631 5.802 4.902 c 1.059 0.603 2.173 1.267 2.73 2.352 c 0.372 0.725 0.451 1.561 0.717 2.331 c 1.066 3.086 4.903 4.633 5.757 7.784 c 0.53 1.956 -0.242 3.993 -0.659 5.977 c -0.089 0.423 -0.155 0.85 -0.212 1.279 c 2.168 0.659 4.467 1.016 6.851 1.016 c 0.414 0 0.826 -0.011 1.235 -0.032 c 0.394 -0.689 0.679 -1.464 1.014 -2.188 c 0.657 -1.421 1.579 -2.72 2.703 -3.81 c 1.576 -1.528 3.54 -2.645 4.954 -4.324 c 0.844 -1.002 1.489 -2.306 1.235 -3.591 c -0.353 -1.781 -2.246 -2.803 -4.01 -3.233 c -1.764 -0.43 -3.68 -0.552 -5.167 -1.595 c -1.011 -0.709 -1.719 -2.316 -2.712 -3.05 c -3.375 -2.496 -9.728 0.213 -13.148 -2.22 c -0.431 -0.307 -0.825 -0.693 -1.03 -1.18 c -0.171 -0.405 -0.201 -0.856 -0.193 -1.295 c 0.042 -2.345 2.236 -4.649 4.06 -6.124 c 0.132 -0.106 0.269 -0.21 0.428 -0.268 c 0.564 -0.206 1.167 0.227 1.503 0.724 c 0.336 0.497 0.011 2.698 0.46 3.095 c 0.449 0.398 1.286 0.456 1.555 -0.08 c 0.124 -0.249 0.623 -2.148 0.597 -2.424 c -0.119 -1.261 0.051 -2.564 0.602 -3.705 C 40.035 35.581 41.97 34.308 43.434 32.684 z" style="stroke: none; stroke-width: 1; stroke-dasharray: none; stroke-linecap: butt; stroke-linejoin: miter; stroke-miterlimit: 10; fill: rgb(145,220,90); fill-rule: nonzero; opacity: 1;" transform=" matrix(1 0 0 1 0 0) " stroke-linecap="round" />
	<path d="M 68.533 49.32 c 0 -9.414 -5.53 -17.534 -13.517 -21.297 c 0.146 0.222 0.297 0.44 0.437 0.666 c 0.687 1.109 1.312 2.299 1.468 3.594 c 0.394 3.272 -2.244 6.254 -2.188 9.549 c 0.047 2.732 2.21 5.279 4.898 5.767 c 0.981 0.178 1.991 0.108 2.981 0.225 c 0.99 0.117 2.023 0.469 2.615 1.272 c 0.466 0.632 0.589 1.447 0.671 2.228 c 0.33 3.139 0.211 6.322 -0.331 9.431 C 67.454 57.369 68.533 53.472 68.533 49.32 z" style="stroke: none; stroke-width: 1; stroke-dasharray: none; stroke-linecap: butt; stroke-linejoin: miter; stroke-miterlimit: 10; fill: rgb(145,220,90); fill-rule: nonzero; opacity: 1;" transform=" matrix(1 0 0 1 0 0) " stroke-linecap="round" />
	<path d="M 45 73.506 c -13.336 0 -24.185 -10.85 -24.185 -24.186 c 0 -13.336 10.85 -24.185 24.185 -24.185 c 13.336 0 24.186 10.85 24.186 24.185 C 69.186 62.656 58.336 73.506 45 73.506 z M 45 27.135 c -12.233 0 -22.185 9.952 -22.185 22.185 c 0 12.234 9.952 22.186 22.185 22.186 c 12.234 0 22.186 -9.952 22.186 -22.186 C 67.186 37.087 57.234 27.135 45 27.135 z" style="stroke: none; stroke-width: 1; stroke-dasharray: none; stroke-linecap: butt; stroke-linejoin: miter; stroke-miterlimit: 10; fill: rgb(0,0,0); fill-rule: nonzero; opacity: 1;" transform=" matrix(1 0 0 1 0 0) " stroke-linecap="round" />
	<path d="M 45 73.506 c -2.39 0 -4.759 -0.352 -7.041 -1.045 c -0.468 -0.143 -0.764 -0.603 -0.7 -1.088 c 0.059 -0.447 0.128 -0.894 0.222 -1.335 c 0.089 -0.423 0.193 -0.849 0.298 -1.275 c 0.364 -1.478 0.708 -2.874 0.363 -4.145 c -0.362 -1.337 -1.449 -2.393 -2.599 -3.511 c -1.212 -1.178 -2.466 -2.397 -3.052 -4.095 c -0.112 -0.323 -0.195 -0.659 -0.276 -0.994 c -0.105 -0.433 -0.205 -0.841 -0.374 -1.172 c -0.399 -0.779 -1.276 -1.324 -2.295 -1.904 c -2.111 -1.203 -4.739 -2.7 -6.101 -5.225 c -1.162 -2.151 -1.175 -4.512 -1.089 -6.746 c 0.004 -0.109 0.026 -0.218 0.065 -0.32 C 25.987 31.371 35.06 25.135 45 25.135 c 0.51 0 1.014 0.021 1.515 0.052 c 0.273 0.017 0.527 0.145 0.703 0.354 c 0.177 0.209 0.259 0.481 0.229 0.753 c -0.298 2.719 -1.452 5.314 -3.248 7.305 l 0 0 c -0.503 0.559 -1.052 1.07 -1.583 1.565 c -1.027 0.957 -1.998 1.861 -2.544 2.995 c -0.434 0.899 -0.606 1.979 -0.498 3.122 c 0.054 0.569 -0.548 2.649 -0.688 2.93 c -0.234 0.468 -0.678 0.796 -1.216 0.901 c -0.65 0.127 -1.368 -0.074 -1.873 -0.52 c -0.565 -0.5 -0.585 -1.363 -0.609 -2.362 c -0.007 -0.304 -0.018 -0.75 -0.055 -0.938 c -0.113 -0.145 -0.237 -0.23 -0.301 -0.256 c -0.004 0.012 -0.041 0.04 -0.101 0.087 c -2.279 1.843 -3.602 3.766 -3.628 5.273 c -0.005 0.271 0.003 0.612 0.111 0.868 c 0.104 0.246 0.33 0.493 0.673 0.737 c 1.404 0.999 3.562 0.943 5.846 0.888 c 2.542 -0.065 5.174 -0.131 7.123 1.312 c 0.601 0.444 1.066 1.078 1.516 1.69 c 0.374 0.51 0.762 1.038 1.135 1.3 c 0.922 0.646 2.114 0.88 3.377 1.127 c 0.462 0.09 0.924 0.181 1.377 0.291 c 2.609 0.637 4.321 2.081 4.694 3.962 c 0.277 1.396 -0.231 2.951 -1.433 4.377 c -0.877 1.042 -1.929 1.862 -2.946 2.656 c -0.716 0.559 -1.392 1.086 -2.003 1.679 c -1.027 0.996 -1.853 2.159 -2.452 3.456 c -0.105 0.228 -0.205 0.461 -0.306 0.694 c -0.219 0.509 -0.445 1.034 -0.732 1.537 c -0.169 0.296 -0.477 0.485 -0.817 0.503 C 45.848 73.494 45.425 73.506 45 73.506 z M 39.373 70.782 c 2.027 0.53 4.136 0.777 6.226 0.715 c 0.13 -0.271 0.254 -0.558 0.381 -0.854 c 0.108 -0.251 0.215 -0.5 0.329 -0.744 c 0.702 -1.521 1.67 -2.884 2.874 -4.052 c 0.689 -0.668 1.439 -1.254 2.165 -1.82 c 0.979 -0.764 1.904 -1.485 2.647 -2.367 c 0.464 -0.551 1.212 -1.636 1.001 -2.699 c -0.315 -1.586 -2.535 -2.244 -3.208 -2.408 c -0.422 -0.104 -0.854 -0.188 -1.286 -0.271 c -1.412 -0.276 -2.871 -0.563 -4.142 -1.453 c -0.642 -0.45 -1.128 -1.112 -1.599 -1.753 c -0.362 -0.492 -0.735 -1.002 -1.093 -1.267 c -1.396 -1.033 -3.577 -0.976 -5.883 -0.92 c -2.511 0.065 -5.108 0.128 -7.055 -1.257 c -0.651 -0.462 -1.108 -0.997 -1.357 -1.59 c -0.254 -0.601 -0.277 -1.214 -0.269 -1.681 c 0.049 -2.732 2.404 -5.202 4.371 -6.793 c 0.197 -0.16 0.419 -0.321 0.709 -0.427 c 1.06 -0.39 2.096 0.271 2.652 1.093 c 0.317 0.469 0.333 1.122 0.353 1.948 c 0.005 0.21 0.012 0.504 0.03 0.743 c 0.137 -0.491 0.327 -1.264 0.36 -1.523 c -0.128 -1.482 0.111 -2.901 0.694 -4.111 c 0.71 -1.472 1.865 -2.549 2.982 -3.59 c 0.522 -0.487 1.016 -0.947 1.461 -1.44 l 0 0 c 1.282 -1.422 2.177 -3.211 2.576 -5.123 c -0.097 -0.001 -0.193 -0.002 -0.291 -0.002 c -9.063 0 -17.34 5.652 -20.652 14.081 c -0.068 1.907 -0.04 3.893 0.856 5.552 c 1.09 2.021 3.344 3.305 5.332 4.437 c 1.005 0.573 2.381 1.357 3.084 2.73 c 0.277 0.541 0.416 1.11 0.538 1.612 c 0.066 0.273 0.132 0.548 0.223 0.813 c 0.432 1.249 1.463 2.252 2.556 3.314 c 1.293 1.257 2.63 2.557 3.136 4.422 c 0.48 1.771 0.057 3.486 -0.352 5.147 c -0.1 0.404 -0.199 0.808 -0.283 1.208 C 39.415 70.561 39.393 70.671 39.373 70.782 z" style="stroke: none; stroke-width: 1; stroke-dasharray: none; stroke-linecap: butt; stroke-linejoin: miter; stroke-miterlimit: 10; fill: rgb(0,0,0); fill-rule: nonzero; opacity: 1;" transform=" matrix(1 0 0 1 0 0) " stroke-linecap="round" />
	<path d="M 65.264 61.586 c -0.111 0 -0.224 -0.019 -0.334 -0.058 c -0.46 -0.163 -0.735 -0.634 -0.651 -1.114 c 0.523 -3.002 0.631 -6.035 0.317 -9.016 c -0.066 -0.629 -0.158 -1.278 -0.473 -1.707 c -0.419 -0.568 -1.259 -0.777 -1.889 -0.853 c -0.393 -0.047 -0.789 -0.06 -1.186 -0.074 c -0.585 -0.021 -1.19 -0.043 -1.812 -0.155 c -3.113 -0.565 -5.595 -3.485 -5.648 -6.649 c -0.029 -1.729 0.581 -3.308 1.172 -4.835 c 0.6 -1.552 1.166 -3.018 0.991 -4.471 c -0.136 -1.125 -0.735 -2.216 -1.305 -3.135 c -0.087 -0.14 -0.179 -0.278 -0.271 -0.416 l -0.145 -0.218 c -0.246 -0.375 -0.213 -0.867 0.081 -1.205 c 0.293 -0.339 0.778 -0.439 1.181 -0.249 C 63.734 31.41 69.186 40 69.186 49.32 c 0 4.108 -1.054 8.173 -3.048 11.752 C 65.957 61.397 65.618 61.586 65.264 61.586 z M 57.378 30.913 c 0.169 0.478 0.297 0.979 0.36 1.502 c 0.234 1.949 -0.45 3.719 -1.112 5.432 c -0.545 1.41 -1.06 2.741 -1.037 4.08 c 0.037 2.206 1.834 4.32 4.005 4.714 c 0.479 0.087 0.989 0.105 1.528 0.125 c 0.45 0.017 0.9 0.034 1.348 0.087 c 1.468 0.175 2.597 0.747 3.264 1.653 c 0.611 0.831 0.76 1.82 0.851 2.684 c 0.087 0.824 0.144 1.652 0.17 2.482 c 0.285 -1.429 0.432 -2.887 0.432 -4.352 C 67.186 41.907 63.425 34.996 57.378 30.913 z" style="stroke: none; stroke-width: 1; stroke-dasharray: none; stroke-linecap: butt; stroke-linejoin: miter; stroke-miterlimit: 10; fill: rgb(0,0,0); fill-rule: nonzero; opacity: 1;" transform=" matrix(1 0 0 1 0 0) " stroke-linecap="round" />
	<circle cx="45.004" cy="10.274" r="9.274" style="stroke: none; stroke-width: 1; stroke-dasharray: none; stroke-linecap: butt; stroke-linejoin: miter; stroke-miterlimit: 10; fill: rgb(93,99,104); fill-rule: nonzero; opacity: 1;" transform="  matrix(1 0 0 1 0 0) "/>
	<path d="M 38.442 3.716 c 2.553 -2.553 6.221 -3.298 9.433 -2.252 c -1.346 0.438 -2.613 1.183 -3.682 2.252 c -3.622 3.622 -3.622 9.494 0 13.116 c 1.069 1.069 2.337 1.814 3.682 2.252 c -3.213 1.045 -6.881 0.3 -9.433 -2.252 C 34.82 13.21 34.82 7.338 38.442 3.716 z" style="stroke: none; stroke-width: 1; stroke-dasharray: none; stroke-linecap: butt; stroke-linejoin: miter; stroke-miterlimit: 10; fill: rgb(255,234,108); fill-rule: nonzero; opacity: 1;" transform=" matrix(1 0 0 1 0 0) " stroke-linecap="round" />
	<path d="M 45 20.548 c -2.744 0 -5.324 -1.068 -7.265 -3.009 c -1.941 -1.94 -3.01 -4.521 -3.01 -7.265 s 1.069 -5.324 3.01 -7.265 c 4.006 -4.006 10.524 -4.006 14.529 0 c 1.94 1.94 3.01 4.521 3.01 7.265 s -1.069 5.324 -3.01 7.265 l 0 0 l 0 0 C 50.324 19.479 47.744 20.548 45 20.548 z M 45 2.004 c -2.119 0 -4.238 0.807 -5.851 2.419 c -1.563 1.563 -2.424 3.641 -2.424 5.851 s 0.861 4.288 2.424 5.851 c 1.563 1.563 3.641 2.423 5.851 2.423 s 4.287 -0.86 5.851 -2.423 l 0 0 c 1.563 -1.563 2.424 -3.641 2.424 -5.851 s -0.861 -4.288 -2.424 -5.851 C 49.237 2.81 47.118 2.004 45 2.004 z" style="stroke: none; stroke-width: 1; stroke-dasharray: none; stroke-linecap: butt; stroke-linejoin: miter; stroke-miterlimit: 10; fill: rgb(0,0,0); fill-rule: nonzero; opacity: 1;" transform=" matrix(1 0 0 1 0 0) " stroke-linecap="round" />
	<path d="M 44.974 20.547 c -2.676 0 -5.278 -1.048 -7.238 -3.008 c -1.941 -1.94 -3.01 -4.521 -3.01 -7.265 s 1.069 -5.324 3.01 -7.265 l 0 0 c 2.743 -2.744 6.75 -3.702 10.449 -2.496 c 0.412 0.134 0.69 0.518 0.69 0.951 s -0.279 0.817 -0.69 0.951 c -1.256 0.408 -2.36 1.084 -3.284 2.008 c -1.563 1.563 -2.424 3.641 -2.424 5.851 s 0.861 4.288 2.424 5.851 c 0.923 0.924 2.028 1.6 3.284 2.009 c 0.412 0.134 0.69 0.518 0.69 0.951 s -0.278 0.817 -0.69 0.951 C 47.127 20.379 46.044 20.547 44.974 20.547 z M 44.647 2.008 c -2.038 0.082 -4.001 0.917 -5.498 2.415 l 0 0 c -1.563 1.563 -2.424 3.641 -2.424 5.851 s 0.861 4.288 2.424 5.851 c 1.497 1.497 3.46 2.333 5.498 2.415 c -0.409 -0.302 -0.796 -0.636 -1.161 -1 c -1.941 -1.94 -3.01 -4.521 -3.01 -7.265 s 1.069 -5.324 3.01 -7.265 C 43.851 2.644 44.238 2.31 44.647 2.008 z M 38.442 3.716 h 0.01 H 38.442 z" style="stroke: none; stroke-width: 1; stroke-dasharray: none; stroke-linecap: butt; stroke-linejoin: miter; stroke-miterlimit: 10; fill: rgb(0,0,0); fill-rule: nonzero; opacity: 1;" transform=" matrix(1 0 0 1 0 0) " stroke-linecap="round" />
	<path d="M 45 90 C 22.715 90 4.585 71.87 4.585 49.585 c 0 -15.933 9.412 -30.425 23.977 -36.919 c 0.503 -0.226 1.096 0 1.32 0.506 c 0.225 0.504 -0.001 1.096 -0.506 1.32 C 15.531 20.666 6.585 34.441 6.585 49.585 C 6.585 70.767 23.818 88 45 88 s 38.415 -17.234 38.415 -38.415 c 0 -15.144 -8.946 -28.919 -22.792 -35.093 c -0.505 -0.225 -0.731 -0.816 -0.506 -1.32 c 0.225 -0.503 0.816 -0.732 1.32 -0.506 c 14.566 6.495 23.978 20.987 23.978 36.919 C 85.415 71.87 67.285 90 45 90 z" style="stroke: none; stroke-width: 1; stroke-dasharray: none; stroke-linecap: butt; stroke-linejoin: miter; stroke-miterlimit: 10; fill: rgb(0,0,0); fill-rule: nonzero; opacity: 1;" transform=" matrix(1 0 0 1 0 0) " stroke-linecap="round" />
</g>
</svg>