<?xml version="1.0" encoding="utf-8"?>
<!-- Generator: Adobe Illustrator 25.3.1, SVG Export Plug-In . SVG Version: 6.00 Build 0)  -->
<svg version="1.1" id="Layer_1" xmlns="http://www.w3.org/2000/svg" xmlns:xlink="http://www.w3.org/1999/xlink" x="0px" y="0px"
	 viewBox="0 0 2048 2048" style="enable-background:new 0 0 2048 2048;" xml:space="preserve">
<style type="text/css">
	.st0{fill:#CCEDFF;}
	.st1{fill:#317BC8;}
	.st2{fill:#403E55;}
	.st3{fill:#98D6FF;}
	.st4{fill:#FFB8BA;}
</style>
<g>
	<g>
		<path class="st0" d="M334.86,864.45c-81.91,105.49-98.89,254.66-7.05,365.33c94.9,114.36,235.95,137.89,375.49,150.24
			c77.49,6.86,152.11-7.47,225.79-29.65c57.04-17.17,108.42-48.94,165.43-66.16c60.2-18.19,123.62-8.15,180.48,17.44
			c60.8,27.37,112.78,61.15,181.44,65.06c66.65,3.8,140.76-10.01,194-51.88c191.34-150.47,148.72-523.78-88.21-610.82
			c-63.59-23.36-131.72-22.29-195.37-50.78c-125.32-56.1-198.46-168.99-300.63-255.01c-86.82-73.1-200.97-74.73-298.28-21.51
			c-108.78,59.49-163.06,157.97-212.83,266.62c-33.03,72.12-102.38,115.27-162.37,162.68C371,823.21,351.58,842.92,334.86,864.45z"
			/>
	</g>
	<g>
		<g>
			<g>
				<path class="st1" d="M1343.67,1277.25c10.35-1.18,20.76-1.37,31.16-0.74c5.2,0.32,10.38,0.83,15.54,1.5
					c1.28,0.17,0.24,0.03-0.01,0c0.58,0.08,1.15,0.16,1.73,0.25c1.34,0.2,2.68,0.4,4.02,0.62c2.69,0.43,5.37,0.9,8.04,1.4
					c20.67,3.85,40.96,9.46,61.35,14.54c40.21,10.03,83.19,18.39,123.96,6.37c35.66-10.51,67-35.02,86.07-66.91
					c19.17-32.06,24.15-70.69,13.35-106.49c-10.45-34.66-34.56-66.22-67.39-82.31c-40.87-20.03-88.75-15.9-130.96-2.43
					c-20.39,6.51-39.89,15.54-59.23,24.62c-19.53,9.17-36.91,17.59-56.79,24.36c-9.67,3.29-19.54,6.02-29.59,7.86
					c-5.78,1.06-8.08,1.3-14.07,1.82c-5.71,0.49-11.43,0.81-17.16,0.97c-11.61,0.32-23.23,0.01-34.8-0.94
					c-11.5-0.94-20.8-2.25-32.38-4.63c-44.04-9.02-84.91-28.07-127.66-41.32c-22.62-7.01-45.86-12.02-69.32-15.27
					c-5.91-0.82-11.84-1.63-17.79-2.2c-1.98-0.19,1.85,0.27,0.96,0.14c-0.67-0.1-1.33-0.19-2-0.29c-1.57-0.23-3.14-0.46-4.71-0.69
					c-7.57-1.08-15.25-2.25-22.91-2.22c-8.03,0.04-15.9,1.54-20.74,8.51c-3.25,4.68-1.01,12.27,3.9,14.86
					c5.55,2.93,11.39,1.1,14.86-3.9c-1.13,1.63-0.92,1.46-2.52,2.57c1.63-1.13-1.03,0.25-0.7,0.25c0.44,0,1.13-0.28,1.56-0.4
					c2.2-0.62-1.99,0.07-0.18,0c3.22-0.12,6.38-0.17,9.6,0.05c3.5,0.24,6.98,0.66,10.46,1.1c-2.11-0.26-0.75-0.1,0.52,0.08
					c0.71,0.1,1.43,0.2,2.14,0.31c1.37,0.2,2.74,0.41,4.12,0.6c10.12,1.43,18.91,2.25,28.69,3.84c11.27,1.84,22.48,4.09,33.57,6.79
					c42.73,10.39,82.76,29.1,124.94,41.31c43.02,12.45,89.54,17.36,133.96,10.19c41-6.61,77.85-27.67,115.31-44.35
					c2.14-0.95,4.29-1.9,6.44-2.82c0.54-0.23,1.07-0.46,1.61-0.69c-1.26,0.53,0.52-0.22,0.63-0.27c1.26-0.52,2.51-1.04,3.77-1.55
					c4.65-1.88,9.35-3.68,14.08-5.34c9.91-3.48,20.03-6.39,30.29-8.63c10.83-2.37,19.08-3.6,29.94-4.17
					c5.27-0.28,10.55-0.32,15.82-0.1c2.62,0.11,5.24,0.29,7.85,0.54c1.2,0.11,2.41,0.25,3.61,0.39c-0.08-0.01,1.88,0.25,0.95,0.12
					c-0.64-0.09,2.12,0.34,2.14,0.34c5.16,0.85,10.28,2,15.29,3.48c2.33,0.68,4.63,1.44,6.91,2.26c1.15,0.41,2.28,0.85,3.41,1.29
					c0.07,0.03,1.94,0.78,0.73,0.28c-1.26-0.52,1.14,0.5,1.37,0.61c7.61,3.44,14.81,7.77,21.45,12.84c-1.44-1.1,0.33,0.28,0.82,0.68
					c0.75,0.61,1.48,1.23,2.21,1.85c1.7,1.46,3.37,2.97,4.99,4.53c3.01,2.89,5.87,5.95,8.57,9.13c0.62,0.74,1.24,1.48,1.85,2.23
					c0.39,0.49,1.77,2.28,0.68,0.84c1.36,1.8,2.68,3.63,3.95,5.5c2.36,3.47,4.55,7.06,6.56,10.74c2.01,3.69,3.86,7.47,5.51,11.34
					c-0.72-1.7,0.14,0.39,0.38,1c0.41,1.05,0.81,2.11,1.2,3.18c0.72,1.98,1.39,3.97,2.01,5.98c1.24,4.01,2.29,8.09,3.14,12.2
					c0.42,2.06,0.79,4.12,1.11,6.2c0.07,0.48,0.14,0.96,0.21,1.44c-0.02-0.16-0.2-1.77-0.07-0.49c0.11,1.12,0.26,2.24,0.36,3.37
					c0.8,8.55,0.62,17.08-0.35,25.6c-0.15,1.29,0.04-0.32,0.06-0.48c-0.08,0.48-0.15,0.96-0.22,1.44c-0.16,0.97-0.32,1.94-0.5,2.91
					c-0.42,2.26-0.91,4.51-1.46,6.74c-1.02,4.13-2.27,8.21-3.72,12.21c-0.33,0.92-0.68,1.84-1.04,2.76
					c-0.16,0.42-1.11,2.76-0.75,1.88c0.46-1.1-0.18,0.4-0.22,0.51c-0.27,0.6-0.53,1.2-0.8,1.79c-0.48,1.04-0.97,2.07-1.47,3.1
					c-1.88,3.82-3.94,7.55-6.18,11.17c-2.24,3.63-4.67,7.14-7.23,10.55c-0.74,0.99,0.08-0.1,0.2-0.25
					c-0.31,0.39-0.61,0.77-0.92,1.16c-0.72,0.9-1.45,1.79-2.19,2.66c-1.38,1.63-2.8,3.23-4.25,4.8c-2.91,3.14-5.96,6.15-9.14,9.02
					c-1.59,1.43-3.21,2.83-4.87,4.19c-0.76,0.63-1.54,1.24-2.31,1.86c1.45-1.16-0.88,0.66-1.34,1c-7.02,5.19-14.52,9.73-22.38,13.53
					c-1.78,0.86-3.58,1.68-5.39,2.46c1.67-0.72-0.48,0.18-1.05,0.41c-1.22,0.48-2.45,0.95-3.69,1.4c-4.02,1.45-8.11,2.71-12.26,3.76
					c-4.38,1.11-8.81,1.97-13.27,2.63c0.02,0-1.86,0.25-0.85,0.12c1.01-0.13-0.87,0.09-0.85,0.09c-1.14,0.12-2.29,0.25-3.44,0.36
					c-2.67,0.25-5.34,0.42-8.01,0.54c-9.93,0.42-19.88-0.07-29.76-1.17c-1.15-0.13-2.29-0.27-3.43-0.41c0.02,0-1.86-0.24-0.84-0.11
					c1.15,0.15-1.2-0.17-1.42-0.2c-2.48-0.36-4.96-0.75-7.44-1.18c-4.98-0.85-9.94-1.82-14.88-2.87
					c-40.46-8.59-80.05-22.47-121.65-24.67c-9.82-0.52-19.65-0.28-29.43,0.83c-5.63,0.64-11.15,4.54-10.86,10.86
					C1333.05,1271.72,1337.63,1277.94,1343.67,1277.25L1343.67,1277.25z"/>
				<path class="st2" d="M1545.79,1307.86c-27.82,0-55.44-6.07-80.47-12.32c-4.66-1.16-9.31-2.35-13.96-3.54
					c-15.44-3.95-31.42-8.03-47.34-10.99c-2.73-0.51-5.43-0.98-8.03-1.39c-1.34-0.21-2.67-0.42-4.01-0.62
					c-0.57-0.08-1.15-0.17-1.72-0.25v0c-5.22-0.68-10.43-1.18-15.47-1.49c-10.63-0.65-21.07-0.4-31.03,0.73l0,0
					c-2.54,0.29-5.01-0.51-7.13-2.32c-2.62-2.24-4.42-5.87-4.57-9.25c-0.3-6.74,5.57-10.96,11.53-11.64
					c9.52-1.09,19.47-1.37,29.55-0.84c28.72,1.52,56.9,8.69,84.15,15.63c12.3,3.13,25.03,6.37,37.62,9.05
					c5.29,1.12,10.15,2.06,14.85,2.86c2.49,0.43,4.99,0.82,7.42,1.17l0.45,0.06c0.29,0.04,0.54,0.08,0.75,0.11
					c0.44,0.05,0.78,0.1,1.04,0.15l0-0.02c1.14,0.14,2.28,0.28,3.42,0.41c10.57,1.17,20.26,1.56,29.64,1.16
					c2.69-0.11,5.37-0.29,7.98-0.53c1.04-0.1,2.08-0.21,3.12-0.32l0.31-0.03l0,0.02c0.22-0.05,0.5-0.08,0.84-0.12
					c0.33-0.04,0.6-0.08,0.83-0.09l0-0.02c4.69-0.7,9.01-1.55,13.2-2.61c4.07-1.03,8.17-2.29,12.19-3.74
					c1.23-0.45,2.46-0.91,3.67-1.39c0.2-0.08,0.59-0.24,0.95-0.39c0.2-0.08,0.39-0.16,0.56-0.22c0.01-0.01,0.03-0.01,0.04-0.02
					c0.03-0.02,0.06-0.03,0.07-0.03v0c1.62-0.71,3.22-1.44,4.77-2.19c7.76-3.74,15.25-8.27,22.26-13.45c0.17-0.13,0.6-0.46,1-0.76
					c0.25-0.2,0.47-0.36,0.65-0.49c0.05-0.04,0.09-0.07,0.11-0.09l0,0c0.62-0.5,1.25-1,1.86-1.5c1.62-1.33,3.25-2.73,4.84-4.17
					c3.16-2.84,6.21-5.86,9.09-8.97c1.44-1.55,2.86-3.16,4.22-4.78c0.74-0.88,1.46-1.76,2.18-2.65c0.23-0.29,0.47-0.58,0.7-0.88
					c0,0,0.01-0.01,0.01-0.01c2.64-3.51,5.06-7.04,7.19-10.49c2.23-3.61,4.3-7.34,6.14-11.1c0.5-1.02,0.99-2.05,1.46-3.08
					c0.22-0.49,0.44-0.98,0.66-1.47l0.3-0.68c0.03-0.08,0.07-0.16,0.1-0.23c0.08-0.21,0.17-0.45,0.29-0.73
					c0.17-0.43,0.35-0.87,0.41-1.03c0.35-0.91,0.7-1.82,1.03-2.74c1.45-3.99,2.69-8.07,3.69-12.14c0.55-2.21,1.04-4.47,1.45-6.7
					c0.18-0.96,0.35-1.93,0.5-2.89l0.09-0.6c0.03-0.21,0.06-0.43,0.1-0.64c0.96-8.65,1.07-17.11,0.31-25.12
					c-0.06-0.61-0.13-1.22-0.2-1.82c-0.06-0.51-0.12-1.02-0.17-1.53l-0.14-0.92c-0.32-2.08-0.69-4.15-1.1-6.16
					c-0.84-4.07-1.88-8.15-3.12-12.13c-0.61-1.96-1.28-3.96-2-5.94c-0.38-1.06-0.78-2.11-1.19-3.16l-0.34-0.85
					c-0.1-0.24-0.18-0.45-0.25-0.64c-0.02-0.05-0.04-0.08-0.04-0.1l0,0c-1.54-3.55-3.29-7.14-5.21-10.66
					c-2-3.66-4.19-7.25-6.52-10.68c-1.09-1.6-2.25-3.22-3.54-4.95l0,0c-0.01-0.01-0.03-0.04-0.06-0.09c-0.1-0.12-0.2-0.25-0.31-0.38
					c-0.24-0.31-0.53-0.69-0.68-0.87c-0.6-0.74-1.21-1.48-1.83-2.22c-2.69-3.18-5.56-6.23-8.52-9.08c-1.6-1.54-3.27-3.05-4.95-4.5
					c-0.73-0.62-1.46-1.24-2.2-1.84c-0.17-0.14-0.48-0.38-0.76-0.61c-0.18-0.14-0.34-0.27-0.48-0.39c-0.01-0.01-0.01-0.01-0.02-0.02
					c-0.03-0.02-0.04-0.03-0.05-0.04v0c-6.52-4.91-13.51-9.07-20.79-12.36c-0.07-0.03-0.33-0.14-0.63-0.27
					c-0.29-0.13-0.54-0.23-0.75-0.33c-0.12-0.05-0.25-0.1-0.4-0.16l-0.48-0.19c-1.06-0.41-2.13-0.82-3.2-1.21
					c-2.22-0.8-4.53-1.56-6.87-2.24c-4.88-1.44-10-2.6-15.2-3.46l-0.19-0.03c-0.76-0.12-1.31-0.21-1.71-0.29l0,0.01l-0.07-0.01
					c-0.07-0.01-0.14-0.01-0.19-0.02c-0.36-0.05-0.66-0.09-0.89-0.14l0,0.02l0-0.02c0,0,0,0,0,0l0,0.02
					c-1.19-0.14-2.39-0.27-3.59-0.39c-2.54-0.24-5.17-0.42-7.82-0.53c-5.11-0.22-10.41-0.18-15.75,0.1
					c-10.42,0.55-18.5,1.68-29.82,4.15c-9.99,2.19-20.15,5.08-30.2,8.61c-4.5,1.58-9.1,3.32-14.05,5.33
					c-1.26,0.51-2.51,1.03-3.77,1.55l-0.59,0.25c-0.06,0.03-0.12,0.05-0.19,0.08l-1.46,0.63c-2.15,0.92-4.29,1.87-6.43,2.82
					c-8.28,3.69-16.68,7.66-24.81,11.51c-28.84,13.64-58.66,27.74-90.69,32.9c-41.59,6.71-88.03,3.18-134.29-10.21
					c-18.55-5.37-36.97-12.1-54.78-18.6c-22.71-8.3-46.2-16.88-70.12-22.69c-10.91-2.65-22.19-4.93-33.52-6.78
					c-5.76-0.94-11.08-1.59-16.72-2.29c-3.83-0.47-7.8-0.96-11.96-1.55c-0.86-0.12-1.73-0.25-2.59-0.38l-1.53-0.22
					c-0.71-0.1-1.42-0.21-2.14-0.31c-0.6-0.08-1.22-0.17-1.48-0.2c-3.29-0.41-6.33-0.76-9.44-0.98c-3.16-0.22-6.29-0.16-9.23-0.05
					c-0.1,0.03-0.2,0.06-0.32,0.1c-0.07,0.02-0.14,0.05-0.22,0.07c-3.74,3.05-8.67,3.6-13.16,1.23c-2.63-1.39-4.67-4.18-5.47-7.47
					c-0.76-3.11-0.28-6.2,1.31-8.49c5.4-7.76,14.25-8.79,21.35-8.83c7.23,0,14.59,1.02,21.68,2.04l1.34,0.19
					c0.93,0.13,1.86,0.27,2.78,0.4l2.73,0.4c0.09,0.01,0.19,0.03,0.28,0.04c6.08,0.59,12.27,1.44,17.74,2.2
					c24.08,3.33,47.45,8.47,69.43,15.29c15.7,4.87,31.39,10.61,46.57,16.16c26.15,9.56,53.19,19.45,81.01,25.15
					c11.4,2.34,20.75,3.67,32.29,4.61c11.52,0.94,23.2,1.25,34.72,0.93c5.78-0.16,11.54-0.49,17.11-0.96
					c6.17-0.53,8.35-0.78,14-1.81c9.41-1.72,19.05-4.28,29.48-7.83c18.13-6.17,34.44-13.85,51.71-21.98l5-2.35
					c16.97-7.97,38.09-17.89,59.32-24.66c34.95-11.15,86.13-19.77,131.52,2.47c31.46,15.42,56.8,46.36,67.78,82.77
					c10.78,35.75,5.89,74.79-13.43,107.09c-19.26,32.21-50.79,56.72-86.5,67.24C1575.23,1306.17,1560.48,1307.86,1545.79,1307.86z
					 M1391.08,1277.35c0.37,0.05,0.74,0.11,1.11,0.16c1.35,0.2,2.69,0.4,4.03,0.62c2.6,0.42,5.32,0.89,8.06,1.4
					c15.98,2.97,31.97,7.06,47.44,11.02c4.65,1.19,9.3,2.38,13.96,3.54c38.06,9.49,82.13,18.6,123.56,6.38
					c35.35-10.42,66.57-34.69,85.63-66.57c19.1-31.94,23.94-70.54,13.28-105.88c-10.86-36.01-35.91-66.61-67-81.85
					c-44.94-22.03-95.72-13.46-130.41-2.39c-19.58,6.25-37.6,14.48-59.14,24.59l-5,2.35c-17.31,8.15-33.66,15.84-51.87,22.04
					c-10.5,3.57-20.21,6.15-29.69,7.88c-5.84,1.07-8.24,1.32-14.14,1.83c-5.61,0.48-11.39,0.81-17.2,0.97
					c-11.57,0.32-23.31,0.01-34.89-0.94c-11.6-0.95-21.01-2.29-32.47-4.64c-27.94-5.72-55.03-15.63-81.23-25.21
					c-15.16-5.54-30.84-11.27-46.5-16.13c-21.91-6.79-45.19-11.92-69.2-15.24c-5.08-0.7-10.78-1.49-16.43-2.07
					c-0.09,0.01-0.2,0.01-0.32,0.01l0,0c-0.01,0-0.02,0-0.03,0c-0.23-0.01-0.52-0.05-0.85-0.09c-0.35-0.04-0.66-0.08-0.9-0.17
					l-2.24-0.33c-0.93-0.14-1.85-0.27-2.78-0.4l-1.34-0.19c-7.03-1.01-14.31-2.01-21.46-2.02c-6.74,0.03-15.12,0.99-20.13,8.18
					c-1.34,1.93-1.74,4.58-1.08,7.28c0.7,2.88,2.46,5.3,4.72,6.5c3.6,1.9,7.4,1.71,10.52-0.32c-0.13-0.91,1.62-1.46,1.7-1.49
					l0.18-0.06c0.01-0.01,0.02-0.02,0.03-0.02c0.52-0.53,1.01-1.12,1.47-1.77l1.23,0.86c0,0,0,0,0,0l-0.31,0.45
					c-0.21,0.31-0.37,0.54-0.52,0.73c2.58-0.07,5.29-0.09,8.03,0.1c2.88,0.2,5.67,0.51,8.66,0.88l0,0l1.84,0.23l0,0l0,0.01
					c0.18,0.02,0.36,0.05,0.54,0.08c0.71,0.1,1.43,0.2,2.14,0.31l1.53,0.22c0.86,0.13,1.72,0.25,2.58,0.38
					c4.14,0.59,8.1,1.08,11.93,1.55c5.65,0.7,10.99,1.36,16.78,2.3c11.37,1.85,22.69,4.14,33.63,6.8
					c24.01,5.84,47.53,14.43,70.28,22.74c17.79,6.5,36.19,13.22,54.69,18.57c46.05,13.33,92.26,16.85,133.63,10.17
					c31.82-5.13,61.54-19.19,90.28-32.78c8.14-3.85,16.55-7.83,24.84-11.52c2.14-0.95,4.29-1.9,6.45-2.83l1.49-0.64
					c0.04-0.02,0.08-0.04,0.12-0.05l0.04-0.02l0.6-0.25c1.26-0.52,2.52-1.04,3.78-1.55c4.98-2.01,9.59-3.77,14.12-5.35
					c10.11-3.55,20.33-6.46,30.37-8.66c11.41-2.5,19.55-3.63,30.06-4.19c5.39-0.29,10.73-0.32,15.9-0.1
					c2.67,0.11,5.33,0.29,7.89,0.54c0.96,0.09,1.92,0.19,2.88,0.3v0l0.74,0.09l0,0l-0.08,0.66l0.1-0.66c0.01,0,0.05,0.01,0.11,0.02
					l0-0.01l0.83,0.12c0.05,0.01,0.1,0.02,0.14,0.03c0.03,0,0.05,0.01,0.07,0.01v0c0.45,0.07,1.35,0.21,1.74,0.28l0.21,0.03
					c5.26,0.87,10.44,2.04,15.38,3.5c2.37,0.7,4.71,1.46,6.96,2.27c1.08,0.39,2.16,0.81,3.23,1.22l0.5,0.2
					c0.03,0.01,0.06,0.02,0.09,0.03c0.01,0,0.03,0.01,0.04,0.01l0,0c0.01,0,0.02,0.01,0.03,0.01c0.1,0.03,0.2,0.07,0.29,0.11
					c0.09,0.04,0.18,0.08,0.28,0.12c0.04,0.02,0.07,0.03,0.09,0.04l0,0.01c0.03,0.01,0.05,0.03,0.07,0.04
					c0.1,0.04,0.2,0.09,0.3,0.13c0.31,0.13,0.58,0.25,0.65,0.28c7.55,3.41,14.8,7.74,21.53,12.87c0.02,0.01,0.03,0.02,0.05,0.04
					c0.01,0.01,0.02,0.01,0.03,0.02l0,0l-0.01,0.02c0.02,0.02,0.05,0.04,0.08,0.06c0.29,0.23,0.61,0.48,0.78,0.62
					c0.75,0.61,1.49,1.23,2.23,1.86c1.71,1.47,3.4,3,5.02,4.56c3,2.88,5.9,5.97,8.63,9.19c0.63,0.74,1.25,1.49,1.86,2.24
					c0.15,0.19,0.44,0.56,0.69,0.87l0.01-0.01c1.46,1.94,2.76,3.75,3.97,5.53c2.36,3.47,4.58,7.11,6.6,10.81
					c2.04,3.73,3.88,7.52,5.49,11.28c0.02,0.04,0.04,0.08,0.05,0.12l0,0c0,0,0,0,0,0l-0.02,0.01c0.02,0.05,0.04,0.09,0.06,0.14
					c0.13,0.33,0.27,0.67,0.35,0.87c0.42,1.06,0.82,2.13,1.21,3.19c0.73,2.01,1.41,4.03,2.02,6.01c1.25,4.03,2.31,8.16,3.15,12.27
					c0.42,2.03,0.79,4.13,1.12,6.24l0.06,0.39c0.01,0.05,0.03,0.09,0.04,0.14h0.01c0,0.01,0,0.04,0.01,0.08
					c0.02,0.12,0.03,0.24,0.05,0.35c0.02,0.21,0.05,0.42,0.06,0.48l0,0l-0.02,0c0.04,0.36,0.08,0.71,0.12,1.07
					c0.07,0.62,0.14,1.23,0.2,1.85c0.76,8.08,0.66,16.6-0.3,25.31l0.01,0c0,0,0,0,0,0l0,0v0c-0.02,0.1-0.07,0.58-0.1,0.81
					c0,0.01,0,0.03,0,0.04l-0.01,0.07c-0.01,0.08-0.04,0.14-0.06,0.2l-0.05,0.3c-0.16,0.98-0.33,1.96-0.51,2.93
					c-0.42,2.26-0.92,4.54-1.47,6.79c-1.02,4.12-2.28,8.25-3.74,12.29c-0.34,0.93-0.68,1.85-1.04,2.77
					c-0.06,0.16-0.24,0.61-0.42,1.05c-0.06,0.16-0.13,0.32-0.18,0.46c0,0,0,0.01,0,0.02l0.01,0c-0.01,0.02-0.03,0.06-0.06,0.13
					c-0.03,0.09-0.07,0.17-0.1,0.25c-0.02,0.05-0.04,0.09-0.06,0.13c0,0.01-0.01,0.01-0.01,0.02l0,0c0,0.01,0,0.01-0.01,0.02
					l-0.29,0.67c-0.22,0.5-0.44,0.99-0.67,1.48c-0.48,1.05-0.97,2.09-1.48,3.12c-1.87,3.8-3.96,7.58-6.21,11.23
					c-2.11,3.41-4.49,6.89-7.09,10.36l0.01,0c0,0,0,0,0,0l0,0c0,0,0,0,0,0c0,0,0,0.01-0.01,0.01c-0.06,0.07-0.22,0.28-0.34,0.44
					c-0.02,0.03-0.04,0.05-0.06,0.07l-0.08,0.1l-0.01-0.01c-0.01,0.01-0.01,0.01-0.02,0.02c-0.14,0.17-0.28,0.35-0.41,0.52
					c-0.72,0.9-1.46,1.79-2.2,2.68c-1.38,1.63-2.82,3.26-4.27,4.83c-2.9,3.14-5.99,6.19-9.18,9.06c-1.61,1.45-3.26,2.87-4.89,4.22
					c-0.74,0.61-1.48,1.2-2.23,1.8l-0.09,0.07l-0.01-0.01c-0.1,0.08-0.21,0.16-0.33,0.25c-0.4,0.31-0.84,0.65-1.02,0.78
					c-7.09,5.24-14.66,9.82-22.5,13.6c-1.76,0.85-3.58,1.68-5.42,2.47h0l0,0l-0.01-0.02c-0.03,0.01-0.07,0.03-0.1,0.04
					c-0.36,0.15-0.76,0.31-0.96,0.39c-1.23,0.49-2.47,0.96-3.71,1.41c-4.07,1.47-8.22,2.74-12.33,3.79
					c-4.24,1.07-8.6,1.94-13.34,2.65c-0.03,0-0.32,0.04-0.6,0.08l0,0.01c-0.01,0-0.04,0-0.08,0.01c-0.07,0.01-0.14,0.02-0.19,0.03
					s-0.11,0.01-0.19,0.02c-0.04,0-0.06,0.01-0.08,0.01l0-0.01c-0.27,0.03-0.55,0.07-0.58,0.07l-0.32,0.04
					c-1.04,0.11-2.09,0.23-3.14,0.32c-2.63,0.24-5.33,0.42-8.05,0.54c-9.45,0.4-19.23,0.01-29.87-1.17
					c-1.15-0.13-2.29-0.27-3.44-0.41l-0.74-0.09c-0.04,0-0.08-0.01-0.11-0.01c-0.05-0.01-0.11-0.01-0.17-0.03
					c-0.05-0.01-0.09-0.01-0.1-0.01l0-0.01c-0.23-0.03-0.48-0.07-0.7-0.1l-0.45-0.06c-2.44-0.36-4.95-0.75-7.46-1.18
					c-4.72-0.81-9.6-1.75-14.91-2.87c-12.62-2.68-25.36-5.92-37.67-9.06c-27.18-6.92-55.29-14.08-83.86-15.59
					c-10-0.53-19.86-0.25-29.3,0.83c-5.27,0.6-10.46,4.26-10.2,10.09c0.13,2.99,1.72,6.2,4.04,8.18c1.25,1.07,3.31,2.27,5.99,1.97
					c10.05-1.15,20.57-1.39,31.29-0.74c5.08,0.31,10.33,0.82,15.59,1.5c0.14,0.02,0.26,0.03,0.37,0.05
					C1390.96,1277.33,1391.06,1277.34,1391.08,1277.35L1391.08,1277.35z"/>
			</g>
		</g>
		<g>
			<g>
				<path class="st1" d="M1041.22,1257.49c-55.1-0.68-110.39,6.13-163.68,20.18c-26.23,6.91-51.61,16.1-77.01,25.53
					c-24.88,9.24-50.17,18.35-76.56,22.15c0.5-0.07,1.63-0.19-0.67,0.09c-0.79,0.1-1.58,0.19-2.37,0.28
					c-1.38,0.15-2.76,0.29-4.15,0.41c-3.35,0.29-6.7,0.47-10.06,0.54c-6.31,0.13-12.65-0.14-18.92-0.91
					c1.46,0.18-0.5-0.07-0.65-0.09c-0.79-0.12-1.57-0.24-2.36-0.38c-1.58-0.27-3.15-0.57-4.71-0.9c-3.21-0.68-6.39-1.49-9.53-2.44
					c-6.29-1.9-10-3.37-14.94-5.75c-5.18-2.49-10.19-5.32-15.03-8.43c-2.43-1.56-4.81-3.19-7.14-4.89c-1.02-0.74-2.04-1.5-3.05-2.27
					c-1.45-1.1,1.05,0.84-0.37-0.3c-0.71-0.57-1.42-1.13-2.12-1.7c-9.13-7.47-17.51-15.84-25.22-24.76
					c-8.39-9.71-15.22-19.13-22.63-30.14c-7.39-10.98-14.36-22.23-21.37-33.45c-12.97-20.77-26.05-41.94-43.17-59.61
					c-16.35-16.89-37.14-30.42-60.7-34.08c-22.93-3.56-47.53,0.13-66.88,13.59c-19.21,13.36-30.94,33.93-33.87,57.02
					c-2.78,21.96,4.81,44.61,20.99,59.85c16.45,15.5,39.27,23.1,61.66,23.22c25.04,0.14,49.35-9.5,70.33-22.57
					c42.56-26.5,75.3-65.73,112.41-98.82c4.52-4.03,9.1-7.98,13.78-11.82c2.34-1.92,4.69-3.81,7.08-5.67
					c-0.96,0.75,1.5-1.14,1.85-1.4c1.36-1.02,2.72-2.04,4.1-3.04c10.35-7.54,21.22-14.33,32.55-20.31
					c23.09-12.19,46.94-20.86,72.56-28.27c51.15-14.79,103.16-21.13,156.59-14.73c4.76,0.57,11.15,1.55,17.11,2.64
					c6.45,1.18,12.85,2.58,19.21,4.16c5.51,1.36,12.04-1.77,13.36-7.59c1.28-5.62-1.69-11.9-7.59-13.36
					c-52.24-12.95-106.69-12.45-159.42-2.74c-25.64,4.72-50.89,11.67-75.41,20.53c-24.84,8.97-49.12,20-71.1,34.74
					c-40.84,27.39-73.08,64.84-109.6,97.32c-4.54,4.04-9.14,8-13.84,11.84c-1.17,0.96-2.35,1.92-3.54,2.86
					c-0.59,0.47-1.19,0.94-1.79,1.41c-0.11,0.09-1.6,1.25-0.51,0.4c-2.42,1.86-4.87,3.68-7.35,5.45
					c-9.9,7.06-20.34,13.42-31.45,18.39c-0.69,0.31-1.38,0.62-2.07,0.91c0.45-0.19,1.52-0.6-0.54,0.2
					c-1.23,0.48-2.45,0.96-3.69,1.41c-3,1.09-6.04,2.08-9.12,2.93c-2.72,0.76-5.47,1.41-8.23,1.95c-1.48,0.29-2.98,0.5-4.46,0.78
					c-1.87,0.35,1.46-0.16-0.21,0.04c-0.79,0.09-1.58,0.18-2.37,0.25c-5.1,0.47-10.24,0.49-15.34,0.08
					c-1.28-0.1-2.55-0.25-3.83-0.39c2.13,0.24-0.68-0.13-1.39-0.25c-2.68-0.47-5.34-1.05-7.96-1.77c-2.3-0.63-4.58-1.35-6.82-2.18
					c-0.61-0.23-3.26-1.28-1.38-0.49c-1.45-0.62-2.88-1.29-4.29-2c-2.1-1.06-4.15-2.22-6.13-3.48c-0.92-0.59-1.83-1.19-2.73-1.82
					c-0.51-0.36-1.01-0.74-1.51-1.1c1.91,1.35-0.52-0.44-0.73-0.62c-1.79-1.5-3.49-3.09-5.1-4.78c-0.75-0.79-1.49-1.6-2.19-2.43
					c-0.41-0.48-0.79-0.96-1.2-1.44c1.5,1.78-0.4-0.59-0.56-0.81c-1.35-1.92-2.58-3.92-3.67-5.99c-0.5-0.95-0.97-1.92-1.43-2.89
					c-0.88-1.86-0.14-0.32,0.01,0.06c-0.27-0.71-0.55-1.42-0.8-2.14c-0.81-2.3-1.48-4.65-2-7.04c-0.23-1.04-0.41-2.09-0.6-3.15
					c-0.38-2.07-0.04-0.24,0,0.17c-0.08-0.76-0.17-1.52-0.23-2.28c-0.19-2.29-0.26-4.59-0.21-6.89c0.03-1.23,0.09-2.46,0.18-3.69
					c0.05-0.61,0.12-1.23,0.17-1.84c0.16-2.14-0.21,1,0.02-0.32c0.86-4.9,1.99-9.68,3.74-14.36c0.22-0.58,0.45-1.15,0.68-1.73
					c0.59-1.54-0.74,1.5,0,0.03c0.49-0.97,0.91-1.97,1.4-2.94c1.19-2.35,2.52-4.63,3.97-6.83c0.68-1.04,1.42-2.03,2.13-3.05
					c0.7-1.01-0.18,0.23-0.29,0.36c0.39-0.48,0.78-0.96,1.18-1.44c1.7-2.01,3.51-3.92,5.44-5.7c0.81-0.75,1.66-1.47,2.5-2.19
					c1.58-1.36,0.51-0.45,0.14-0.16c0.52-0.41,1.06-0.8,1.6-1.18c2.28-1.63,4.67-3.13,7.13-4.48c1.01-0.56,2.04-1.09,3.07-1.6
					c0.41-0.2,3.91-1.75,1.92-0.93c2.6-1.07,5.26-1.98,7.96-2.76c2.39-0.69,4.81-1.27,7.25-1.73c1.31-0.25,2.62-0.47,3.93-0.65
					c-0.45,0.06-2.07,0.22,0.08,0.02c0.83-0.08,1.66-0.16,2.49-0.23c5.16-0.39,10.36-0.32,15.51,0.21c0.66,0.07,1.33,0.14,1.99,0.23
					c-2.04-0.27-0.3-0.03,0.09,0.04c1.32,0.23,2.64,0.46,3.95,0.73c2.62,0.55,5.21,1.22,7.76,2.01c1.28,0.39,2.54,0.82,3.8,1.27
					c0.41,0.15,3.95,1.56,2.05,0.75c2.56,1.09,5.06,2.35,7.51,3.68c2.46,1.35,4.87,2.81,7.21,4.36c1.17,0.77,2.32,1.57,3.46,2.39
					c0.44,0.32,3.32,2.54,1.99,1.47c8.87,7.1,16.71,15.35,23.82,24.18c0.45,0.56,0.89,1.12,1.34,1.68c0.15,0.18,1.26,1.61,0.28,0.35
					c0.88,1.14,1.74,2.29,2.59,3.44c1.71,2.31,3.38,4.65,5.02,7.01c3.27,4.7,6.42,9.47,9.51,14.29
					c14.06,21.91,27.17,44.48,42.71,65.4c14.86,20,31.65,38.26,52.15,52.61c20.65,14.45,44.45,23.13,69.62,24.89
					c53.06,3.7,102.65-21.9,151.6-38.29c25.48-8.53,51.54-15.34,77.94-20.38c26.31-5.02,51.19-8.02,78.34-9.44
					c13-0.68,26.02-0.92,39.04-0.76c5.68,0.07,11.13-5.05,10.86-10.86C1051.82,1262.41,1047.31,1257.57,1041.22,1257.49
					L1041.22,1257.49z"/>
				<path class="st2" d="M704.73,1349.2c-3.48,0-6.97-0.12-10.47-0.36c-24.88-1.74-49.09-10.39-70-25.02
					c-18.38-12.86-35.49-30.12-52.33-52.77c-11.17-15.02-21.23-31.15-30.96-46.74c-0.09-0.14-0.18-0.29-0.27-0.43
					c-10.55,8.85-21.56,17.15-33.26,24.43c-24.38,15.18-48.16,22.82-70.73,22.68c-23.85-0.14-46.51-8.67-62.17-23.43
					c-16.16-15.22-24.09-37.84-21.22-60.49c3.03-23.88,15.17-44.31,34.18-57.54c18.33-12.75,42.27-17.62,67.42-13.71
					c27.15,4.22,48.23,20.98,61.12,34.3c11.19,11.55,20.7,24.66,29.53,38.08c8.07-7.53,16-15.25,23.75-22.78
					c23.11-22.47,47-45.7,74.38-64.06c19.75-13.25,43.06-24.64,71.26-34.82c24.95-9.01,50.37-15.93,75.53-20.56
					c56.6-10.42,110.35-9.49,159.74,2.75c5.94,1.47,9.59,7.87,8.14,14.26c-0.62,2.72-2.35,5.08-4.88,6.63
					c-2.79,1.72-6.3,2.29-9.39,1.52c-6.51-1.61-12.96-3.01-19.16-4.15c-5.77-1.06-12.15-2.04-17.06-2.63
					c-50.17-6.01-101.3-1.21-156.29,14.7c-28.63,8.28-51.64,17.25-72.42,28.22c-11.22,5.93-22.15,12.74-32.46,20.25
					c-1.37,1-2.73,2.01-4.09,3.03l-0.88,0.67c-0.4,0.31-0.71,0.54-0.96,0.72l0,0c0,0,0,0,0,0l-0.2,0.15l0,0
					c-2.23,1.74-4.54,3.59-6.86,5.5c-4.46,3.67-8.96,7.53-13.76,11.8c-11.78,10.51-23.33,21.84-34.49,32.79
					c-8.87,8.7-17.85,17.52-27.12,26.08c0.04,0.07,0.09,0.14,0.13,0.21l2.45,3.92c6.36,10.19,12.94,20.73,19.76,30.86
					c8.51,12.64,15.05,21.36,22.58,30.07c8.03,9.3,16.49,17.6,25.13,24.67c0.61,0.5,1.23,0.99,1.85,1.49l0.27,0.21
					c0.09,0.07,0.18,0.14,0.26,0.22c0.03,0.02,0.06,0.05,0.1,0.07c1,0.76,2.01,1.51,3.03,2.25c2.36,1.71,4.75,3.35,7.11,4.86
					c4.92,3.16,9.94,5.98,14.94,8.39c5.14,2.47,8.89,3.91,14.83,5.7c3.07,0.92,6.25,1.74,9.47,2.42c1.51,0.32,3.09,0.62,4.69,0.89
					c0.78,0.13,1.56,0.26,2.35,0.38c0.06,0.01,0.38,0.05,0.67,0.09c0.1,0.01,0.2,0.03,0.29,0.04l0.07,0.01
					c5.86,0.7,12.05,0.99,18.4,0.86c3.26-0.07,6.63-0.25,10.02-0.54c1.38-0.12,2.75-0.25,4.13-0.4c0.79-0.09,1.57-0.18,2.36-0.28
					c0.26-0.03,0.48-0.06,0.65-0.08l0,0h0c0.03,0,0.06-0.01,0.09-0.01c25.45-3.67,49.62-12.18,76.31-22.1
					c25.59-9.51,50.75-18.62,77.08-25.55c53.44-14.08,108.6-20.89,163.88-20.2c6.32,0.08,11.31,5.06,11.6,11.58
					c0.13,2.88-1.01,5.71-3.2,7.98c-2.26,2.34-5.28,3.67-8.3,3.67c-0.04,0-0.08,0-0.13,0c-13.16-0.16-26.28,0.09-38.99,0.76
					c-27.08,1.42-51.94,4.41-78.23,9.43c-26.31,5.02-52.5,11.87-77.84,20.35c-11.08,3.71-22.41,7.97-33.37,12.1
					C778,1335.7,742.14,1349.2,704.73,1349.2z M541.87,1222.9c0.13,0.2,0.25,0.41,0.38,0.61c9.72,15.57,19.76,31.67,30.89,46.64
					c16.74,22.52,33.74,39.67,51.98,52.44c20.69,14.48,44.63,23.04,69.24,24.76c40.88,2.85,80.03-11.88,117.88-26.13
					c10.97-4.13,22.32-8.4,33.42-12.12c25.4-8.51,51.66-15.37,78.04-20.4c26.36-5.03,51.28-8.03,78.44-9.46
					c12.74-0.67,25.89-0.92,39.08-0.76c2.66,0.04,5.35-1.17,7.33-3.21c1.9-1.96,2.89-4.4,2.78-6.87
					c-0.26-5.72-4.61-10.08-10.13-10.15c-55.15-0.69-110.17,6.1-163.48,20.15c-26.27,6.92-51.38,16.02-76.94,25.51
					c-26.55,9.86-50.62,18.34-75.98,22.08c-0.02,0-0.04,0.01-0.07,0.01l0,0.01c-0.03,0-0.09,0.01-0.18,0.02
					c-0.27,0.04-0.65,0.09-1.17,0.15c-0.79,0.1-1.58,0.19-2.38,0.28c-1.39,0.15-2.78,0.29-4.16,0.41
					c-3.42,0.29-6.83,0.47-10.11,0.54c-6.56,0.13-12.93-0.17-18.96-0.91c-0.02,0-0.04,0-0.06-0.01l0-0.01
					c-0.3-0.04-0.62-0.08-0.68-0.09c-0.79-0.12-1.58-0.25-2.37-0.38c-1.62-0.28-3.21-0.58-4.74-0.91c-3.26-0.69-6.48-1.52-9.59-2.46
					c-6.03-1.82-9.83-3.28-15.05-5.79c-5.06-2.43-10.14-5.28-15.11-8.48c-2.38-1.53-4.8-3.18-7.18-4.91
					c-1.02-0.74-2.02-1.48-3.02-2.24c0,0-0.01,0-0.01-0.01l0,0c0,0-0.01-0.01-0.02-0.01c-0.11-0.08-0.22-0.16-0.33-0.24
					c-0.04-0.03-0.07-0.06-0.11-0.09c-0.01,0-0.01-0.01-0.02-0.01l0,0c-0.03-0.03-0.06-0.05-0.08-0.08l-0.13-0.11
					c-0.62-0.5-1.24-0.99-1.86-1.5c-8.71-7.12-17.22-15.49-25.31-24.85c-7.57-8.77-14.14-17.52-22.69-30.22
					c-6.83-10.15-13.42-20.7-19.79-30.9l-2.43-3.9C552.2,1213.93,547.09,1218.48,541.87,1222.9z M438.17,1115.99
					c-18.58,0-35.85,5.05-49.8,14.76c-18.66,12.98-30.58,33.05-33.55,56.5c-2.81,22.18,4.95,44.32,20.76,59.21
					c15.39,14.49,37.67,22.88,61.15,23.02c22.22,0.13,45.79-7.43,69.93-22.45c11.69-7.28,22.69-15.58,33.25-24.44
					c-3.5-5.61-7.1-11.36-10.71-16.98c-0.09-0.14-0.18-0.27-0.26-0.41c-2.64,2.27-5.22,4.44-7.77,6.53
					c-1.18,0.96-2.36,1.92-3.55,2.87l-2.15,1.7c-0.05,0.04-0.1,0.08-0.15,0.12l0,0c0,0,0,0,0,0l0,0c-2.31,1.79-4.8,3.63-7.38,5.46
					c-10.98,7.83-21.31,13.87-31.58,18.47c-0.25,0.11-0.5,0.22-0.74,0.33l0.01,0.04l-0.74,0.3c-0.11,0.05-0.43,0.17-0.62,0.25h0
					l0-0.01l-0.55,0.22c-1.23,0.48-2.46,0.96-3.71,1.42c-3.06,1.11-6.15,2.11-9.18,2.95c-2.73,0.76-5.52,1.42-8.29,1.97
					c-0.83,0.16-1.66,0.3-2.5,0.44c-0.51,0.08-1.01,0.17-1.52,0.26c-0.21,0.1-0.46,0.13-0.65,0.16c-0.18,0.03-0.42,0.07-0.65,0.03
					c-0.6,0.07-1.2,0.13-1.8,0.19c-5.08,0.47-10.28,0.49-15.47,0.08c-1.29-0.1-2.57-0.25-3.86-0.39l0,0l0,0l0-0.04
					c-0.05-0.01-0.1-0.01-0.15-0.02c-0.48-0.07-1.03-0.15-1.3-0.2c-2.71-0.47-5.41-1.07-8.03-1.78c-2.31-0.63-4.62-1.37-6.88-2.2
					c-0.19-0.07-0.57-0.22-0.95-0.37c-0.15-0.06-0.3-0.12-0.44-0.17l-0.02,0.04c-0.07-0.03-0.14-0.06-0.21-0.09
					c-1.31-0.56-2.66-1.2-4.12-1.93c-2.12-1.07-4.2-2.25-6.2-3.52c-0.95-0.61-1.88-1.22-2.76-1.84c-0.27-0.19-0.54-0.39-0.81-0.58
					c-0.23-0.17-0.47-0.34-0.71-0.51l0,0l0.03-0.04c-0.04-0.03-0.09-0.07-0.13-0.1c-0.31-0.24-0.6-0.46-0.67-0.51
					c-1.81-1.52-3.55-3.15-5.16-4.84c-0.77-0.81-1.52-1.64-2.22-2.46c-0.23-0.27-0.46-0.55-0.69-0.83l-0.51-0.62l0,0l0.04-0.04
					c-0.05-0.06-0.1-0.13-0.15-0.19c-0.23-0.29-0.44-0.56-0.49-0.63c-1.38-1.96-2.63-4-3.72-6.07c-0.49-0.93-0.94-1.87-1.44-2.92
					l-0.01,0v0c-0.03-0.08-0.09-0.21-0.15-0.35c-0.06-0.13-0.12-0.25-0.16-0.35c-0.04-0.1-0.08-0.17-0.09-0.19l0.01,0
					c-0.08-0.2-0.12-0.33-0.11-0.44c-0.1-0.28-0.21-0.55-0.3-0.83c-0.81-2.3-1.49-4.7-2.02-7.13c-0.2-0.91-0.36-1.82-0.53-2.74
					l-0.06-0.33l-0.02,0v0l0-0.02c-0.02-0.21-0.11-0.73-0.15-0.96c0-0.02-0.01-0.04-0.01-0.06l-0.01-0.03l0,0
					c-0.01-0.13-0.01-0.25,0.02-0.35c-0.03-0.29-0.06-0.59-0.08-0.89c-0.19-2.3-0.26-4.64-0.21-6.97c0.03-1.25,0.09-2.5,0.19-3.73
					c0.02-0.3,0.05-0.6,0.08-0.9c0.02-0.22,0.04-0.45,0.06-0.67c-0.06-0.25-0.02-0.55,0.01-0.78c0.02-0.13,0.05-0.38,0.17-0.6
					c0.97-5.34,2.13-9.73,3.64-13.77c0.12-0.32,0.25-0.64,0.37-0.96c0.01-0.02,0.02-0.05,0.03-0.07c0.02-0.27,0.15-0.57,0.27-0.83
					c0.08-0.17,0.19-0.44,0.38-0.62c0.12-0.24,0.23-0.49,0.34-0.73c0.23-0.5,0.47-1.01,0.72-1.5c1.21-2.38,2.56-4.71,4.01-6.91
					c0.43-0.65,0.88-1.28,1.32-1.91c0.2-0.28,0.39-0.55,0.59-0.83l-0.02-0.02l0,0c0.04-0.05,0.17-0.23,0.29-0.4
					c0.05-0.07,0.11-0.16,0.18-0.24c0.01-0.01,0.01-0.02,0.01-0.02l0,0c0.06-0.08,0.14-0.15,0.22-0.21
					c0.16-0.19,0.31-0.38,0.47-0.57c1.73-2.05,3.58-3.99,5.51-5.77c0.74-0.69,1.51-1.35,2.28-2.01l0.24-0.2
					c0.07-0.06,0.13-0.11,0.19-0.16l-0.02-0.02l0,0l0,0c0,0,0.01-0.01,0.01-0.01c0.12-0.09,0.31-0.25,0.45-0.37
					c0.04-0.03,0.1-0.08,0.16-0.13c0,0,0.01-0.01,0.01-0.01l0,0c0.06-0.04,0.12-0.08,0.19-0.12c0.26-0.19,0.53-0.38,0.79-0.57
					c2.28-1.63,4.71-3.16,7.2-4.53c1.03-0.57,2.08-1.11,3.11-1.61c0.12-0.06,0.53-0.24,0.98-0.45c0.34-0.16,0.72-0.32,1.01-0.46
					l-0.02-0.05c0.03-0.01,0.06-0.02,0.08-0.04c2.53-1.04,5.2-1.96,7.95-2.75c2.4-0.69,4.86-1.28,7.32-1.75
					c0.98-0.19,1.92-0.35,2.83-0.49c0.07-0.02,0.14-0.04,0.2-0.05v0c0.01,0,0.02,0,0.04,0c0.07-0.01,0.13-0.02,0.18-0.02
					c0.22-0.02,0.54-0.06,0.71-0.08c0,0,0.01,0,0.01,0l0,0.03c0.04,0,0.08-0.01,0.12-0.01l0.75-0.07c0.58-0.06,1.16-0.11,1.75-0.16
					c5.19-0.39,10.45-0.33,15.64,0.21c0.36,0.04,0.72,0.08,1.08,0.12l0,0l0.06,0.01c0.16,0.02,0.31,0.04,0.47,0.06
					c0.08,0.01,0.17,0.02,0.26,0.03c0.05,0.01,0.1,0.01,0.15,0.02l0,0.02c0.05,0.01,0.09,0.02,0.13,0.02l0.71,0.13
					c1.09,0.19,2.17,0.38,3.25,0.61c2.62,0.55,5.26,1.23,7.83,2.02c1.31,0.4,2.6,0.84,3.83,1.29c0.12,0.04,0.51,0.2,0.95,0.37
					c0.38,0.15,0.81,0.32,1.13,0.44l0.02-0.04c0.02,0.01,0.04,0.02,0.06,0.03c2.4,1.03,4.86,2.24,7.51,3.69
					c2.44,1.34,4.88,2.81,7.27,4.39c1.14,0.75,2.31,1.57,3.48,2.41c0.16,0.12,0.66,0.49,1.15,0.87c0.32,0.24,0.63,0.48,0.85,0.65
					l0.02-0.02c0.01,0.01,0.02,0.02,0.03,0.02c8.27,6.62,16.09,14.56,23.9,24.28l1.63,2.05l0.01,0c0.03,0.04,0.05,0.07,0.08,0.1
					c0.85,1.11,1.69,2.23,2.52,3.35c1.65,2.23,3.34,4.59,5.04,7.02c2.62,3.76,5.29,7.76,8.32,12.45c1.56-1.35,3.15-2.75,4.77-4.19
					c3.5-3.12,6.98-6.29,10.44-9.51c-8.83-13.44-18.33-26.55-29.49-38.08c-12.74-13.15-33.54-29.7-60.28-33.86
					C449.12,1116.42,443.59,1115.99,438.17,1115.99z M426.99,1247.16c1.02,0.12,2.05,0.22,3.07,0.31c5.1,0.41,10.22,0.38,15.21-0.08
					c0.79-0.07,1.57-0.16,2.35-0.25c0.01,0,0.01,0,0.02,0c0.05-0.01,0.1-0.02,0.15-0.03c0.67-0.12,1.33-0.24,2-0.35
					c0.82-0.14,1.64-0.27,2.45-0.43c2.73-0.54,5.49-1.19,8.18-1.94c3-0.83,6.04-1.81,9.07-2.92c1.23-0.45,2.45-0.92,3.67-1.4
					l0.82-0.32c0.58-0.25,1.15-0.5,1.72-0.76c10.22-4.57,20.47-10.57,31.36-18.33c2.42-1.73,4.76-3.45,6.95-5.14l0.22-0.17
					c0.09-0.08,0.2-0.16,0.31-0.24l2.14-1.69c1.18-0.94,2.36-1.9,3.53-2.86c2.59-2.12,5.21-4.32,7.9-6.64
					c-3.07-4.75-5.76-8.78-8.41-12.58c-1.69-2.42-3.37-4.77-5.01-6.99c-0.76-1.03-1.53-2.06-2.31-3.08
					c-0.06-0.07-0.11-0.14-0.16-0.21l-1.72-2.16c-7.66-9.52-15.31-17.32-23.4-23.82l0,0c-0.01-0.01-0.04-0.03-0.07-0.06
					c-0.27-0.18-0.61-0.44-1.08-0.79c-0.48-0.37-0.96-0.73-1.12-0.85c-1.15-0.83-2.31-1.63-3.44-2.38
					c-2.35-1.55-4.76-3.01-7.16-4.33c-2.45-1.34-4.72-2.47-6.94-3.44c0,0-0.01,0-0.01,0l0,0c0,0-0.01,0-0.01,0
					c-0.36-0.11-0.86-0.31-1.58-0.59c-0.43-0.17-0.8-0.31-0.91-0.35c-1.21-0.44-2.48-0.87-3.76-1.26c-2.53-0.78-5.12-1.45-7.7-1.99
					c-1.07-0.22-2.14-0.41-3.21-0.6l-0.72-0.13c-0.14-0.03-0.47-0.07-0.71-0.11c-0.05-0.01-0.11-0.02-0.17-0.03
					c-0.38-0.04-0.77-0.09-1.15-0.13c-5.11-0.53-10.28-0.59-15.38-0.21c-0.57,0.04-1.15,0.1-1.72,0.15l-0.76,0.07
					c-0.21,0.02-0.39,0.04-0.56,0.05c-1.09,0.16-2.2,0.35-3.39,0.58c-2.41,0.46-4.83,1.04-7.19,1.72c-2.52,0.73-4.98,1.57-7.31,2.5
					c-0.32,0.18-0.81,0.4-1.51,0.71c-0.43,0.2-0.82,0.37-0.94,0.43c-1.01,0.49-2.03,1.03-3.04,1.58c-2.44,1.34-4.82,2.83-7.05,4.44
					c-0.4,0.28-0.79,0.57-1.18,0.86c-0.14,0.13-0.31,0.27-0.5,0.44l-0.24,0.2c-0.75,0.65-1.51,1.29-2.24,1.97
					c-1.88,1.74-3.69,3.64-5.38,5.64c-0.25,0.29-0.49,0.59-0.73,0.88l-0.16,0.2c-0.26,0.37-0.52,0.74-0.78,1.11
					c-0.44,0.62-0.88,1.23-1.29,1.86c-1.42,2.15-2.74,4.43-3.92,6.76c-0.24,0.48-0.47,0.97-0.69,1.45c-0.23,0.5-0.46,1-0.71,1.48
					c-0.01,0.02-0.02,0.04-0.03,0.07c-0.08,0.21-0.16,0.42-0.25,0.63c-0.12,0.31-0.25,0.62-0.36,0.94
					c-1.54,4.12-2.72,8.63-3.69,14.19c-0.01,0.09-0.01,0.19-0.02,0.29c-0.02,0.32-0.06,0.65-0.09,0.97
					c-0.03,0.29-0.06,0.58-0.08,0.87c-0.09,1.2-0.15,2.43-0.18,3.64c-0.05,2.28,0.02,4.57,0.2,6.81c0.05,0.61,0.11,1.21,0.18,1.82
					l0.12,0.66c0.16,0.9,0.32,1.79,0.52,2.68c0.52,2.37,1.18,4.7,1.97,6.95c0.19,0.54,0.4,1.07,0.6,1.61l0.11,0.3
					c0.02,0.03,0.03,0.07,0.05,0.1c0.49,1.03,0.93,1.96,1.41,2.86c1.07,2.01,2.29,4,3.63,5.91c0.05,0.06,0.23,0.3,0.44,0.57
					c0.29,0.38,0.52,0.67,0.67,0.9c0.2,0.24,0.4,0.49,0.6,0.73c0.68,0.8,1.41,1.6,2.17,2.4c1.57,1.65,3.27,3.24,5.04,4.72
					c0.07,0.05,0.33,0.25,0.61,0.47c0.3,0.22,0.54,0.41,0.73,0.57c0,0,0,0,0.01,0l0,0c0.03,0.03,0.06,0.06,0.09,0.08
					c0.25,0.18,0.5,0.37,0.75,0.55c0.86,0.6,1.76,1.21,2.7,1.8c1.95,1.24,4,2.4,6.07,3.45c1.28,0.65,2.48,1.21,3.64,1.72l0,0
					c0,0,0.01,0,0.01,0.01c0.26,0.08,0.59,0.21,1,0.37c0.37,0.15,0.74,0.29,0.93,0.36c2.22,0.82,4.49,1.54,6.76,2.16
					c2.58,0.7,5.23,1.29,7.89,1.75c0.26,0.04,0.79,0.12,1.25,0.19c0.31,0.04,0.58,0.08,0.8,0.13c0.01,0,0.01,0,0.02,0l0,0
					C426.98,1247.15,426.98,1247.16,426.99,1247.16z M530.08,1204.2c0.13,0.2,0.25,0.39,0.38,0.59c3.57,5.57,7.14,11.26,10.6,16.81
					c5.22-4.42,10.33-8.97,15.35-13.59c-3.64-5.82-7.31-11.69-11.11-17.51c-3.4,3.16-6.83,6.29-10.27,9.36
					C533.34,1201.36,531.7,1202.8,530.08,1204.2z M546.42,1189.46c3.8,5.82,7.48,11.69,11.12,17.52
					c9.18-8.49,18.08-17.23,26.88-25.86c11.18-10.97,22.74-22.31,34.55-32.84c4.81-4.29,9.32-8.16,13.8-11.84
					c2.41-1.98,4.79-3.89,7.09-5.68l0,0c0.23-0.17,0.6-0.46,0.96-0.74l0.89-0.68c1.36-1.03,2.73-2.04,4.11-3.04
					c10.37-7.55,21.35-14.4,32.64-20.36c20.87-11.02,43.97-20.02,72.7-28.33c55.19-15.96,106.51-20.79,156.89-14.75
					c4.94,0.59,11.35,1.58,17.15,2.65c6.24,1.14,12.71,2.55,19.25,4.17c2.71,0.67,5.79,0.17,8.25-1.34
					c2.18-1.34,3.68-3.36,4.21-5.69c1.11-4.88-1.26-11.04-7.04-12.47c-49.19-12.19-102.72-13.11-159.11-2.73
					c-25.08,4.62-50.42,11.51-75.29,20.49c-28.08,10.14-51.28,21.47-70.93,34.65c-27.26,18.29-51.11,41.47-74.16,63.89
					C562.56,1174.09,554.56,1181.86,546.42,1189.46z"/>
			</g>
		</g>
		<g>
			<path class="st3" d="M1151.8,1162.8H740.97c-10.57,0-19.13-8.57-19.13-19.13v0c0-10.57,8.57-19.13,19.13-19.13h410.83
				c10.57,0,19.13,8.57,19.13,19.13v0C1170.93,1154.23,1162.36,1162.8,1151.8,1162.8z"/>
			<path class="st2" d="M1151.8,1163.55H740.97c-10.96,0-19.88-8.92-19.88-19.88s8.92-19.88,19.88-19.88h410.83
				c10.96,0,19.88,8.92,19.88,19.88S1162.76,1163.55,1151.8,1163.55z M740.97,1125.29c-10.14,0-18.38,8.25-18.38,18.38
				s8.25,18.38,18.38,18.38h410.83c10.13,0,18.38-8.25,18.38-18.38s-8.25-18.38-18.38-18.38H740.97z"/>
		</g>
		<g>
			<polygon class="st3" points="1021.69,965.44 871.08,965.44 836.63,1124.54 1056.14,1124.54 			"/>
			<path class="st2" d="M1057.07,1125.29H835.7l34.78-160.59h151.82L1057.07,1125.29z M837.56,1123.79h217.65l-34.13-157.59h-149.4
				L837.56,1123.79z"/>
		</g>
		<g>
			<path class="st2" d="M1339.79,969.47H552.98c-33.54,0-60.72-27.19-60.72-60.72V466.31c0-33.54,27.19-60.72,60.72-60.72h786.81
				c33.54,0,60.72,27.19,60.72,60.72v442.44C1400.51,942.28,1373.32,969.47,1339.79,969.47z"/>
			<path class="st2" d="M1339.79,970.22H552.98c-33.9,0-61.47-27.58-61.47-61.47V466.31c0-33.9,27.58-61.47,61.47-61.47h786.81
				c33.9,0,61.47,27.58,61.47,61.47v442.44C1401.26,942.64,1373.68,970.22,1339.79,970.22z M552.98,406.34
				c-33.07,0-59.97,26.9-59.97,59.97v442.44c0,33.07,26.9,59.97,59.97,59.97h786.81c33.07,0,59.97-26.9,59.97-59.97V466.31
				c0-33.07-26.9-59.97-59.97-59.97H552.98z"/>
		</g>
		<g>
			<path class="st3" d="M1339.79,969.47H552.98c-33.54,0-60.72-27.19-60.72-60.72v-64.14h908.25v64.14
				C1400.51,942.28,1373.32,969.47,1339.79,969.47z"/>
			<path class="st2" d="M1339.79,970.22H552.98c-33.9,0-61.47-27.58-61.47-61.47v-64.89h909.75v64.89
				C1401.26,942.64,1373.68,970.22,1339.79,970.22z M493.01,845.36v63.39c0,33.07,26.9,59.97,59.97,59.97h786.81
				c33.07,0,59.97-26.9,59.97-59.97v-63.39H493.01z"/>
		</g>
		<g>
			<circle class="st1" cx="946.38" cy="906.41" r="25.23"/>
			<path class="st2" d="M946.38,932.39c-14.33,0-25.98-11.65-25.98-25.98c0-14.33,11.65-25.98,25.98-25.98s25.98,11.65,25.98,25.98
				C972.36,920.74,960.71,932.39,946.38,932.39z M946.38,881.93c-13.5,0-24.48,10.98-24.48,24.48c0,13.5,10.98,24.48,24.48,24.48
				s24.48-10.98,24.48-24.48C970.86,892.91,959.88,881.93,946.38,881.93z"/>
		</g>
		<g>
			<path class="st4" d="M1195.15,1246.5v-11.82h-52.57v-37.47h-25.72v11.87h-41.05c-25.22,0-46.86,15.35-56.08,37.22h-12.3v47.21
				h12.3c9.22,21.87,30.85,37.22,56.08,37.22h41.05v11.87h25.72v-37.1h52.57v-11.82h-52.57v-47.18H1195.15z"/>
			<path class="st2" d="M1143.32,1343.35h-27.22v-11.87h-40.3c-24.67,0-46.82-14.59-56.57-37.22h-12.55v-48.71h12.55
				c9.75-22.63,31.9-37.22,56.57-37.22h40.3v-11.87h27.22v37.47h52.57v13.32h-52.57v45.68h52.57v13.32h-52.57V1343.35z
				 M1117.61,1341.85h24.22v-37.1h52.57v-10.32h-52.57v-48.68h52.57v-10.32h-52.57v-37.47h-24.22v11.87h-41.8
				c-24.23,0-45.97,14.43-55.39,36.76l-0.19,0.46h-12.05v45.71h12.05l0.19,0.46c9.41,22.33,31.15,36.76,55.39,36.76h41.8V1341.85z"
				/>
		</g>
		<g>
			<path class="st4" d="M1311.21,1209.07h-41.05v121.66h41.05c33.59,0,60.83-27.23,60.83-60.83v0
				C1372.04,1236.31,1344.81,1209.07,1311.21,1209.07z"/>
			<path class="st2" d="M1311.21,1331.48h-41.8v-123.16h41.8c33.96,0,61.58,27.62,61.58,61.58
				C1372.79,1303.86,1345.17,1331.48,1311.21,1331.48z M1270.92,1329.98h40.3c33.13,0,60.08-26.95,60.08-60.08
				c0-33.13-26.95-60.08-60.08-60.08h-40.3V1329.98z"/>
		</g>
	</g>
	<g>
		<g>
			<path class="st2" d="M401.6,1542.58c4.89,3.01,12.03,5.51,19.55,5.51c11.15,0,17.67-5.89,17.67-14.41
				c0-7.89-4.51-12.4-15.91-16.79c-13.78-4.89-22.3-12.03-22.3-23.93c0-13.16,10.9-22.93,27.31-22.93c8.65,0,14.91,2,18.67,4.13
				l-3.01,8.9c-2.76-1.5-8.39-4.01-16.04-4.01c-11.53,0-15.91,6.89-15.91,12.65c0,7.89,5.14,11.78,16.79,16.29
				c14.28,5.51,21.55,12.4,21.55,24.81c0,13.03-9.65,24.31-29.57,24.31c-8.14,0-17.04-2.38-21.55-5.39L401.6,1542.58z"/>
			<path class="st2" d="M420.39,1557.87c-7.94,0-17.18-2.32-21.97-5.51l-0.46-0.31l3.2-10.61l0.83,0.51
				c5.5,3.38,12.66,5.4,19.15,5.4c10.43,0,16.92-5.23,16.92-13.66c0-7.4-4.18-11.76-15.43-16.09
				c-15.54-5.51-22.78-13.34-22.78-24.63c0-13.94,11.54-23.68,28.06-23.68c10.07,0,16.25,2.65,19.04,4.23l0.54,0.31l-3.49,10.33
				l-0.78-0.43c-3.28-1.79-8.66-3.92-15.68-3.92c-10.47,0-15.16,5.98-15.16,11.9c0,7.02,3.96,10.81,16.31,15.59
				c15.65,6.04,22.03,13.43,22.03,25.51C450.71,1544.37,442.77,1557.87,420.39,1557.87z M399.72,1551.4
				c4.69,2.89,13.25,4.96,20.67,4.96c21.27,0,28.82-12.69,28.82-23.56c0-11.35-6.1-18.33-21.07-24.11
				c-11.2-4.33-17.27-8.33-17.27-16.99c0-6.67,5.15-13.4,16.66-13.4c6.8,0,12.13,1.92,15.61,3.69l2.52-7.46
				c-2.88-1.52-8.65-3.74-17.76-3.74c-15.64,0-26.56,9.12-26.56,22.18c0,10.57,6.93,17.95,21.8,23.22
				c11.97,4.6,16.41,9.34,16.41,17.5c0,9.21-7.23,15.16-18.42,15.16c-6.54,0-13.44-1.86-19.1-5.13L399.72,1551.4z"/>
		</g>
		<g>
			<path class="st2" d="M520.12,1525.04c0,22.43-15.54,32.2-30.19,32.2c-16.41,0-29.07-12.03-29.07-31.2
				c0-20.3,13.28-32.2,30.07-32.2C508.34,1493.85,520.12,1506.5,520.12,1525.04z M472.01,1525.67c0,13.28,7.64,23.3,18.42,23.3
				c10.52,0,18.42-9.9,18.42-23.55c0-10.27-5.14-23.3-18.17-23.3S472.01,1514.14,472.01,1525.67z"/>
			<path class="st2" d="M489.92,1557.99c-17.56,0-29.82-13.14-29.82-31.95c0-19.71,12.39-32.95,30.82-32.95
				c17.91,0,29.94,12.84,29.94,31.95C520.87,1547.8,505.33,1557.99,489.92,1557.99z M490.93,1494.59
				c-17.54,0-29.32,12.64-29.32,31.45c0,17.93,11.64,30.45,28.32,30.45c14.66,0,29.44-9.72,29.44-31.45
				C519.37,1506.83,507.94,1494.59,490.93,1494.59z M490.42,1549.72c-11.11,0-19.17-10.12-19.17-24.05c0-12.1,6-24.3,19.42-24.3
				c13,0,18.92,12.47,18.92,24.05C509.59,1539.5,501.53,1549.72,490.42,1549.72z M490.67,1502.86c-12.38,0-17.92,11.45-17.92,22.8
				c0,13.07,7.43,22.55,17.67,22.55s17.67-9.59,17.67-22.8C508.09,1514.56,502.64,1502.86,490.67,1502.86z"/>
		</g>
		<g>
			<path class="st2" d="M534.02,1511.64c0-6.26-0.13-11.4-0.5-16.41h9.65l0.5,9.77h0.38c3.38-5.76,9.02-11.15,19.04-11.15
				c8.27,0,14.53,5.01,17.16,12.15h0.25c1.88-3.38,4.26-6.01,6.77-7.89c3.63-2.76,7.64-4.26,13.41-4.26
				c8.02,0,19.92,5.26,19.92,26.31v35.71h-10.77v-34.33c0-11.65-4.26-18.67-13.16-18.67c-6.26,0-11.15,4.64-13.03,10.02
				c-0.5,1.5-0.88,3.51-0.88,5.51v37.46h-10.77v-36.33c0-9.65-4.26-16.66-12.65-16.66c-6.89,0-11.9,5.51-13.66,11.03
				c-0.63,1.63-0.88,3.51-0.88,5.39v36.58h-10.77V1511.64z"/>
			<path class="st2" d="M621.35,1556.61h-12.27v-35.08c0-8.17-2.15-17.92-12.41-17.92c-6.22,0-10.67,4.78-12.32,9.52
				c-0.53,1.59-0.83,3.51-0.83,5.27v38.21h-12.27v-37.08c0-9.96-4.45-15.91-11.9-15.91c-6.6,0-11.33,5.44-12.94,10.5
				c-0.56,1.47-0.84,3.19-0.84,5.16v37.33h-12.27v-44.98c0-6.8-0.15-11.7-0.5-16.36l-0.06-0.81h11.17l0.44,8.66
				c4.45-6.67,10.76-10.04,18.76-10.04c7.73,0,14.28,4.36,17.39,11.46c1.72-2.8,3.9-5.22,6.34-7.05c4.02-3.05,8.29-4.41,13.86-4.41
				c9.99,0,20.67,7.11,20.67,27.06V1556.61z M610.57,1555.11h9.27v-34.96c0-18.85-9.9-25.56-19.17-25.56
				c-5.21,0-9.21,1.27-12.95,4.11c-2.59,1.94-4.86,4.59-6.56,7.66l-0.21,0.39h-1.22l-0.18-0.49c-2.65-7.19-8.96-11.66-16.46-11.66
				c-8.12,0-14.14,3.53-18.4,10.78l-0.22,0.37h-1.52l-0.5-9.77h-8.13c0.31,4.46,0.44,9.21,0.44,15.66v43.48h9.27v-35.83
				c0-2.15,0.31-4.06,0.93-5.66c1.75-5.52,7.01-11.51,14.36-11.51c8.27,0,13.4,6.67,13.4,17.41v35.58h9.27v-36.71
				c0-1.91,0.33-4,0.92-5.75c1.83-5.25,6.79-10.54,13.74-10.54c8.97,0,13.91,6.9,13.91,19.42V1555.11z"/>
		</g>
		<g>
			<path class="st2" d="M644.65,1527.55c0.25,14.91,9.77,21.05,20.8,21.05c7.89,0,12.65-1.38,16.79-3.13l1.88,7.89
				c-3.88,1.75-10.52,3.76-20.17,3.76c-18.67,0-29.82-12.28-29.82-30.57s10.77-32.7,28.44-32.7c19.8,0,25.06,17.42,25.06,28.57
				c0,2.26-0.25,4.01-0.38,5.14H644.65z M676.97,1519.65c0.13-7.02-2.88-17.92-15.29-17.92c-11.15,0-16.04,10.27-16.91,17.92H676.97
				z"/>
			<path class="st2" d="M663.94,1557.87c-18.57,0-30.57-12.29-30.57-31.32c0-19.7,12-33.45,29.19-33.45
				c19.05,0,25.81,15.79,25.81,29.32c0,1.98-0.19,3.55-0.32,4.71l-0.13,1.18h-42.5c0.5,12.26,7.94,19.55,20.03,19.55
				c8.13,0,12.73-1.48,16.5-3.07l0.82-0.35l2.23,9.36l-0.56,0.25C680.56,1555.79,673.87,1557.87,663.94,1557.87z M662.56,1494.59
				c-16.3,0-27.69,13.14-27.69,31.95c0,18.39,11.14,29.82,29.07,29.82c9.19,0,15.49-1.82,19.3-3.44l-1.53-6.43
				c-3.76,1.52-8.44,2.85-16.26,2.85c-13.26,0-21.32-8.14-21.55-21.79l-0.01-0.76h42.69c0.13-1.1,0.29-2.58,0.29-4.39
				C686.87,1509.58,680.5,1494.59,662.56,1494.59z M677.71,1520.4h-33.78l0.1-0.84c1.06-9.25,6.93-18.58,17.66-18.58
				c4.57,0,8.29,1.42,11.04,4.23c4.78,4.87,5.03,12.29,4.99,14.45L677.71,1520.4z M645.63,1518.9h30.59
				c-0.05-2.62-0.62-8.62-4.56-12.63c-2.47-2.51-5.82-3.78-9.97-3.78C650.96,1502.49,646.62,1512.43,645.63,1518.9z"/>
		</g>
		<g>
			<path class="st2" d="M714.55,1477.81v17.42h15.79v8.39h-15.79v32.7c0,7.52,2.13,11.78,8.27,11.78c2.88,0,5.01-0.38,6.39-0.75
				l0.5,8.27c-2.13,0.88-5.51,1.5-9.77,1.5c-5.14,0-9.27-1.63-11.9-4.64c-3.13-3.26-4.26-8.65-4.26-15.79v-33.08h-9.4v-8.39h9.4
				v-14.53L714.55,1477.81z"/>
			<path class="st2" d="M719.94,1557.87c-5.36,0-9.67-1.69-12.47-4.89c-3.03-3.15-4.45-8.33-4.45-16.28v-32.33h-9.4v-9.89h9.4
				v-14.36l12.27-3.28v17.64h15.79v9.89H715.3v31.95c0,7.73,2.25,11.03,7.52,11.03c2.92,0,4.98-0.39,6.19-0.73l0.89-0.24l0.59,9.73
				l-0.5,0.2C727.56,1557.31,723.99,1557.87,719.94,1557.87z M695.13,1502.87h9.4v33.83c0,7.54,1.29,12.39,4.05,15.27
				c2.53,2.89,6.45,4.41,11.36,4.41c3.53,0,6.76-0.46,8.99-1.26l-0.41-6.83c-1.33,0.29-3.23,0.56-5.7,0.56
				c-8.08,0-9.02-7.15-9.02-12.53v-33.45h15.79v-6.89H713.8v-17.19l-9.27,2.48v14.71h-9.4V1502.87z"/>
		</g>
		<g>
			<path class="st2" d="M742.74,1466.91h11.03v37.84h0.25c1.75-3.13,4.51-5.89,7.89-7.77c3.26-1.88,7.14-3.13,11.28-3.13
				c8.14,0,21.17,5.01,21.17,25.94v36.08h-11.03v-34.83c0-9.77-3.63-18.04-14.03-18.04c-7.14,0-12.78,5.01-14.78,11.03
				c-0.63,1.5-0.75,3.13-0.75,5.26v36.58h-11.03V1466.91z"/>
			<path class="st2" d="M795.11,1556.61h-12.53v-35.58c0-6.46-1.73-17.29-13.28-17.29c-7.3,0-12.33,5.28-14.07,10.51
				c-0.6,1.44-0.71,2.98-0.71,5.03v37.33h-12.53v-90.46h12.53v36.41c1.8-2.52,4.24-4.69,7.03-6.24c3.65-2.11,7.68-3.23,11.64-3.23
				c10.11,0,21.92,6.99,21.92,26.69V1556.61z M784.09,1555.11h9.53v-35.33c0-23.97-17.01-25.19-20.42-25.19
				c-3.69,0-7.46,1.05-10.9,3.03c-3.21,1.78-5.91,4.44-7.61,7.48l-0.21,0.38h-1.44v-37.84h-9.53v87.46h9.53v-35.83
				c0-2.23,0.14-3.93,0.81-5.55c1.9-5.69,7.43-11.49,15.48-11.49c9.53,0,14.78,6.67,14.78,18.79V1555.11z"/>
		</g>
		<g>
			<path class="st2" d="M824.55,1478.18c0.13,3.76-2.63,6.77-7.02,6.77c-3.88,0-6.64-3.01-6.64-6.77c0-3.88,2.88-6.89,6.89-6.89
				C821.92,1471.29,824.55,1474.3,824.55,1478.18z M812.27,1555.86v-60.64h11.03v60.64H812.27z"/>
			<path class="st2" d="M824.05,1556.61h-12.53v-62.14h12.53V1556.61z M813.02,1555.11h9.53v-59.14h-9.53V1555.11z M817.54,1485.7
				c-4.21,0-7.39-3.23-7.39-7.52c0-4.36,3.28-7.64,7.64-7.64c4.42,0,7.51,3.14,7.52,7.63c0.06,2.02-0.63,3.88-1.96,5.25
				C821.93,1484.89,819.86,1485.7,817.54,1485.7z M817.79,1472.04c-3.56,0-6.14,2.58-6.14,6.14c0,3.43,2.53,6.02,5.89,6.02
				c1.95,0,3.58-0.63,4.73-1.82c1.04-1.08,1.59-2.56,1.54-4.17l0-0.03C823.8,1474.57,821.33,1472.04,817.79,1472.04z"/>
		</g>
		<g>
			<path class="st2" d="M841.59,1511.64c0-6.26-0.13-11.4-0.5-16.41h9.77l0.63,10.02h0.25c3.01-5.76,10.02-11.4,20.05-11.4
				c8.39,0,21.42,5.01,21.42,25.81v36.21h-11.03v-34.96c0-9.77-3.63-17.92-14.03-17.92c-7.27,0-12.9,5.14-14.78,11.28
				c-0.5,1.38-0.75,3.26-0.75,5.14v36.46h-11.03V1511.64z"/>
			<path class="st2" d="M893.96,1556.61h-12.53v-35.71c0-7.83-2.3-17.17-13.28-17.17c-7.45,0-12.43,5.4-14.07,10.75
				c-0.46,1.27-0.72,3.05-0.72,4.92v37.21h-12.53v-44.98c0-6.8-0.15-11.7-0.5-16.36l-0.06-0.81h11.29l0.54,8.68
				c3.41-5.14,10.04-10.06,19.68-10.06c3.7,0,22.17,1.28,22.17,26.56V1556.61z M882.93,1555.11h9.53v-35.46
				c0-23.85-17.22-25.06-20.67-25.06c-10.06,0-16.61,5.68-19.38,11l-0.21,0.4h-1.41l-0.63-10.02h-8.26
				c0.31,4.46,0.44,9.21,0.44,15.66v43.48h9.53v-35.71c0-2.06,0.28-3.98,0.8-5.39c1.79-5.84,7.28-11.77,15.49-11.77
				c9.53,0,14.78,6.63,14.78,18.67V1555.11z"/>
		</g>
		<g>
			<path class="st2" d="M963.37,1495.22c-0.25,4.38-0.5,9.27-0.5,16.66v35.21c0,13.91-2.76,22.43-8.65,27.69
				c-5.89,5.51-14.41,7.27-22.05,7.27c-7.27,0-15.29-1.75-20.17-5.01l2.76-8.39c4.01,2.51,10.27,4.76,17.79,4.76
				c11.28,0,19.55-5.89,19.55-21.17v-6.77h-0.25c-3.38,5.64-9.9,10.15-19.29,10.15c-15.03,0-25.81-12.78-25.81-29.57
				c0-20.55,13.41-32.2,27.31-32.2c10.52,0,16.29,5.51,18.92,10.52h0.25l0.5-9.15H963.37z M951.97,1519.15
				c0-1.88-0.13-3.51-0.63-5.01c-2-6.39-7.39-11.65-15.41-11.65c-10.52,0-18.04,8.9-18.04,22.93c0,11.9,6.01,21.8,17.92,21.8
				c6.77,0,12.9-4.26,15.29-11.28c0.63-1.88,0.88-4.01,0.88-5.89V1519.15z"/>
			<path class="st2" d="M932.17,1582.8c-7.95,0-15.83-1.97-20.59-5.14l-0.47-0.32l3.23-9.84l0.81,0.51
				c2.24,1.4,8.41,4.65,17.39,4.65c8.57,0,18.8-3.54,18.8-20.42v-4.67c-4.17,5.62-10.9,8.8-18.8,8.8
				c-15.14,0-26.56-13.03-26.56-30.32c0-21.63,14.12-32.95,28.06-32.95c10.6,0,16.07,5.5,18.53,9.17l0.43-7.79h11.15l-0.04,0.79
				c-0.26,4.61-0.5,9.35-0.5,16.62v35.21c0,14.04-2.74,22.75-8.9,28.25C948.14,1581.5,938.82,1582.8,932.17,1582.8z M912.89,1576.72
				c4.51,2.79,11.99,4.58,19.28,4.58c6.38,0,15.3-1.23,21.54-7.06c5.82-5.2,8.41-13.57,8.41-27.14v-35.21
				c0-6.89,0.21-11.52,0.46-15.91h-8.14l-0.5,9.15h-1.41l-0.21-0.4c-1.98-3.78-7-10.12-18.25-10.12c-13.2,0-26.56,10.8-26.56,31.45
				c0,16.7,10.54,28.82,25.06,28.82c8.12,0,14.92-3.57,18.65-9.78l0.22-0.36h1.43v7.52c0,14.14-7.21,21.92-20.3,21.92
				c-6.24,0-12.51-1.59-17.37-4.38L912.89,1576.72z M935.8,1547.97c-11.34,0-18.67-8.85-18.67-22.55c0-14.16,7.55-23.68,18.79-23.68
				c9.07,0,14.28,6.29,16.13,12.18c0.58,1.75,0.66,3.63,0.66,5.24v10.9c0,2.18-0.33,4.36-0.92,6.13
				C949.37,1543.34,943.09,1547.97,935.8,1547.97z M935.93,1503.24c-10.34,0-17.29,8.91-17.29,22.18c0,9.71,4.5,21.05,17.17,21.05
				c6.63,0,12.36-4.23,14.58-10.77c0.54-1.62,0.84-3.63,0.84-5.65v-10.9c0-2.11-0.18-3.54-0.59-4.77
				C948.94,1508.99,944.19,1503.24,935.93,1503.24z"/>
		</g>
		<g>
			<path class="st2" d="M1012.1,1495.22l8.02,30.82c1.75,6.77,3.38,13.03,4.51,19.29h0.38c1.38-6.14,3.38-12.65,5.39-19.17
				l9.9-30.95h9.27l9.4,30.32c2.26,7.27,4.01,13.66,5.39,19.8h0.38c1-6.14,2.63-12.53,4.64-19.67l8.64-30.45h10.9l-19.54,60.64
				h-10.02l-9.27-28.94c-2.13-6.77-3.88-12.78-5.39-19.92h-0.25c-1.5,7.27-3.38,13.53-5.51,20.05l-9.77,28.82h-10.02l-18.29-60.64
				H1012.1z"/>
			<path class="st2" d="M1069.9,1556.61h-11.12l-9.44-29.46c-1.88-5.97-3.44-11.29-4.8-17.21c-1.48,6.48-3.23,12.15-4.93,17.34
				l-9.95,29.33h-11.12l-18.74-62.14h12.87l8.22,31.59c1.48,5.73,2.9,11.18,3.98,16.56c1.34-5.43,3.1-11.14,4.8-16.67l10.07-31.48
				h10.37l9.56,30.85c1.99,6.41,3.53,11.95,4.79,17.19c1.09-5.78,2.64-11.58,4.18-17.04l8.8-30.99h12.5L1069.9,1556.61z
				 M1059.88,1555.11h8.93l19.06-59.14h-9.3l-8.49,29.9c-1.76,6.27-3.54,12.99-4.62,19.59l-0.1,0.63h-1.61l-0.13-0.59
				c-1.35-5.99-3.05-12.26-5.37-19.74l-9.23-29.79h-8.17l-9.73,30.42c-1.96,6.38-3.99,12.98-5.37,19.1l-0.13,0.59h-1.6l-0.11-0.62
				c-1.11-6.17-2.73-12.42-4.44-19.03l-7.93-30.46h-9.69l17.84,59.14h8.93l9.6-28.31c1.92-5.88,3.92-12.37,5.49-19.96l0.12-0.6h1.47
				l0.13,0.6c1.48,7.01,3.21,13.01,5.37,19.85L1059.88,1555.11z"/>
		</g>
		<g>
			<path class="st2" d="M1104.81,1527.55c0.25,14.91,9.77,21.05,20.8,21.05c7.89,0,12.65-1.38,16.79-3.13l1.88,7.89
				c-3.88,1.75-10.52,3.76-20.17,3.76c-18.67,0-29.82-12.28-29.82-30.57s10.78-32.7,28.44-32.7c19.8,0,25.06,17.42,25.06,28.57
				c0,2.26-0.25,4.01-0.38,5.14H1104.81z M1137.13,1519.65c0.13-7.02-2.88-17.92-15.29-17.92c-11.15,0-16.04,10.27-16.91,17.92
				H1137.13z"/>
			<path class="st2" d="M1124.1,1557.87c-18.57,0-30.57-12.29-30.57-31.32c0-19.7,12-33.45,29.19-33.45
				c19.05,0,25.81,15.79,25.81,29.32c0,1.98-0.18,3.55-0.32,4.7l-0.13,1.18h-42.5c0.5,12.26,7.94,19.55,20.03,19.55
				c8.13,0,12.73-1.48,16.5-3.07l0.82-0.35l2.23,9.36l-0.56,0.25C1140.72,1555.79,1134.03,1557.87,1124.1,1557.87z M1122.72,1494.59
				c-16.3,0-27.69,13.14-27.69,31.95c0,18.39,11.14,29.82,29.07,29.82c9.19,0,15.49-1.82,19.3-3.44l-1.53-6.43
				c-3.76,1.52-8.44,2.85-16.26,2.85c-13.26,0-21.32-8.14-21.55-21.79l-0.01-0.76h42.69c0.13-1.1,0.29-2.58,0.29-4.39
				C1147.03,1509.58,1140.67,1494.59,1122.72,1494.59z M1137.87,1520.4h-33.78l0.1-0.84c1.06-9.25,6.93-18.58,17.66-18.58
				c4.57,0,8.29,1.42,11.04,4.23c4.78,4.87,5.03,12.29,4.99,14.45L1137.87,1520.4z M1105.79,1518.9h30.59
				c-0.05-2.62-0.62-8.62-4.56-12.63c-2.46-2.51-5.82-3.78-9.97-3.78C1111.12,1502.49,1106.78,1512.43,1105.79,1518.9z"/>
		</g>
		<g>
			<path class="st2" d="M1161.43,1511.64c0-6.26-0.13-11.4-0.5-16.41h9.77l0.63,10.02h0.25c3.01-5.76,10.02-11.4,20.05-11.4
				c8.39,0,21.42,5.01,21.42,25.81v36.21h-11.03v-34.96c0-9.77-3.63-17.92-14.03-17.92c-7.27,0-12.91,5.14-14.78,11.28
				c-0.5,1.38-0.75,3.26-0.75,5.14v36.46h-11.03V1511.64z"/>
			<path class="st2" d="M1213.8,1556.61h-12.53v-35.71c0-7.83-2.3-17.17-13.28-17.17c-7.45,0-12.43,5.4-14.07,10.75
				c-0.46,1.27-0.72,3.05-0.72,4.92v37.21h-12.53v-44.98c0-6.81-0.15-11.7-0.5-16.36l-0.06-0.81h11.29l0.54,8.68
				c3.41-5.14,10.04-10.05,19.68-10.05c3.7,0,22.17,1.28,22.17,26.56V1556.61z M1202.78,1555.11h9.53v-35.46
				c0-23.85-17.22-25.06-20.67-25.06c-10.06,0-16.61,5.68-19.38,11l-0.21,0.4h-1.41l-0.63-10.02h-8.26
				c0.31,4.46,0.45,9.21,0.45,15.66v43.48h9.53v-35.71c0-2.07,0.28-3.98,0.8-5.39c1.79-5.84,7.28-11.77,15.49-11.77
				c9.53,0,14.78,6.63,14.78,18.67V1555.11z"/>
		</g>
		<g>
			<path class="st2" d="M1243.75,1477.81v17.42h15.79v8.39h-15.79v32.7c0,7.52,2.13,11.78,8.27,11.78c2.88,0,5.01-0.38,6.39-0.75
				l0.5,8.27c-2.13,0.88-5.51,1.5-9.77,1.5c-5.14,0-9.27-1.63-11.9-4.64c-3.13-3.26-4.26-8.65-4.26-15.79v-33.08h-9.4v-8.39h9.4
				v-14.53L1243.75,1477.81z"/>
			<path class="st2" d="M1249.13,1557.87c-5.36,0-9.67-1.69-12.47-4.89c-3.03-3.14-4.45-8.33-4.45-16.28v-32.33h-9.4v-9.89h9.4
				v-14.36l12.28-3.28v17.64h15.79v9.89h-15.79v31.95c0,7.73,2.25,11.03,7.52,11.03c2.92,0,4.98-0.39,6.19-0.73l0.89-0.24l0.59,9.73
				l-0.5,0.2C1256.75,1557.31,1253.18,1557.87,1249.13,1557.87z M1224.32,1502.87h9.4v33.83c0,7.54,1.29,12.39,4.05,15.27
				c2.53,2.89,6.45,4.41,11.36,4.41c3.53,0,6.76-0.46,8.99-1.26l-0.41-6.83c-1.33,0.29-3.23,0.56-5.69,0.56
				c-8.08,0-9.02-7.15-9.02-12.53v-33.45h15.79v-6.89H1243v-17.19l-9.28,2.48v14.71h-9.4V1502.87z"/>
		</g>
		<g>
			<path class="st2" d="M1302.88,1495.22l8.02,30.82c1.75,6.77,3.38,13.03,4.51,19.29h0.38c1.38-6.14,3.38-12.65,5.39-19.17
				l9.9-30.95h9.27l9.4,30.32c2.25,7.27,4.01,13.66,5.39,19.8h0.38c1-6.14,2.63-12.53,4.64-19.67l8.64-30.45h10.9l-19.54,60.64
				h-10.02l-9.27-28.94c-2.13-6.77-3.88-12.78-5.39-19.92h-0.25c-1.5,7.27-3.38,13.53-5.51,20.05l-9.77,28.82h-10.02l-18.29-60.64
				H1302.88z"/>
			<path class="st2" d="M1360.68,1556.61h-11.12l-9.44-29.46c-1.88-5.97-3.44-11.3-4.79-17.21c-1.48,6.48-3.23,12.15-4.93,17.34
				l-9.95,29.33h-11.12l-0.16-0.53l-18.58-61.61h12.87l8.22,31.59c1.48,5.73,2.9,11.18,3.98,16.56c1.33-5.41,3.08-11.09,4.78-16.61
				l10.09-31.54h10.37l9.56,30.85c2,6.44,3.54,11.97,4.78,17.19c1.09-5.78,2.64-11.58,4.18-17.04l8.8-30.99h12.5L1360.68,1556.61z
				 M1350.66,1555.11h8.93l19.06-59.14h-9.3l-8.49,29.9c-1.76,6.28-3.54,13-4.62,19.59l-0.1,0.63h-1.62l-0.13-0.59
				c-1.34-5.96-3.04-12.23-5.37-19.74l-9.23-29.79h-8.17l-9.73,30.42c-1.98,6.43-4,13.01-5.37,19.1l-0.13,0.59h-1.6l-0.11-0.62
				c-1.11-6.17-2.73-12.42-4.44-19.03l-0.05-0.21l-7.87-30.26h-9.69l17.84,59.14h8.93l9.6-28.31c1.92-5.87,3.92-12.36,5.49-19.96
				l0.12-0.6h1.47l0.13,0.6c1.47,7,3.21,13,5.37,19.85L1350.66,1555.11z"/>
		</g>
		<g>
			<path class="st2" d="M1390.7,1514.14c0-7.14-0.13-13.28-0.5-18.92h9.65l0.38,11.9h0.5c2.76-8.14,9.4-13.28,16.79-13.28
				c1.25,0,2.13,0.13,3.13,0.38v10.4c-1.13-0.25-2.26-0.38-3.76-0.38c-7.77,0-13.28,5.89-14.78,14.16c-0.25,1.5-0.5,3.26-0.5,5.14
				v32.32h-10.9V1514.14z"/>
			<path class="st2" d="M1402.35,1556.61h-12.4v-42.47c0-7.87-0.15-13.69-0.5-18.87l-0.05-0.8h11.18l0.32,10.18
				c3.22-7.09,9.54-11.56,16.62-11.56c1.23,0,2.16,0.11,3.31,0.4l0.57,0.14v11.92l-0.91-0.2c-1.13-0.25-2.2-0.36-3.6-0.36
				c-7.04,0-12.55,5.32-14.04,13.54c-0.24,1.44-0.49,3.17-0.49,5V1556.61z M1391.45,1555.11h9.4v-31.57c0-1.94,0.26-3.75,0.51-5.26
				c1.63-8.98,7.72-14.78,15.52-14.78c1.14,0,2.08,0.07,3.01,0.22v-8.89c-0.78-0.16-1.49-0.22-2.38-0.22
				c-7.14,0-13.45,5.01-16.08,12.77l-0.17,0.51h-1.77l-0.38-11.9H1391c0.31,5.01,0.45,10.66,0.45,18.17V1555.11z"/>
		</g>
		<g>
			<path class="st2" d="M1485.29,1525.04c0,22.43-15.54,32.2-30.2,32.2c-16.41,0-29.07-12.03-29.07-31.2
				c0-20.3,13.28-32.2,30.07-32.2C1473.52,1493.85,1485.29,1506.5,1485.29,1525.04z M1437.18,1525.67c0,13.28,7.64,23.3,18.42,23.3
				c10.52,0,18.42-9.9,18.42-23.55c0-10.27-5.14-23.3-18.17-23.3S1437.18,1514.14,1437.18,1525.67z"/>
			<path class="st2" d="M1455.1,1557.99c-17.56,0-29.82-13.14-29.82-31.95c0-19.71,12.39-32.95,30.82-32.95
				c17.91,0,29.94,12.84,29.94,31.95C1486.04,1547.8,1470.5,1557.99,1455.1,1557.99z M1456.1,1494.59
				c-17.54,0-29.32,12.64-29.32,31.45c0,17.93,11.64,30.45,28.32,30.45c14.66,0,29.45-9.72,29.45-31.45
				C1484.54,1506.83,1473.11,1494.59,1456.1,1494.59z M1455.6,1549.72c-11.11,0-19.17-10.12-19.17-24.05c0-12.1,6-24.3,19.42-24.3
				c13,0,18.92,12.47,18.92,24.05C1474.77,1539.5,1466.7,1549.72,1455.6,1549.72z M1455.85,1502.86c-12.38,0-17.92,11.45-17.92,22.8
				c0,13.07,7.43,22.55,17.67,22.55c10.24,0,17.67-9.59,17.67-22.8C1473.27,1514.56,1467.82,1502.86,1455.85,1502.86z"/>
		</g>
		<g>
			<path class="st2" d="M1499.2,1511.64c0-6.26-0.13-11.4-0.5-16.41h9.77l0.63,10.02h0.25c3.01-5.76,10.02-11.4,20.05-11.4
				c8.39,0,21.42,5.01,21.42,25.81v36.21h-11.03v-34.96c0-9.77-3.63-17.92-14.03-17.92c-7.27,0-12.91,5.14-14.78,11.28
				c-0.5,1.38-0.75,3.26-0.75,5.14v36.46h-11.03V1511.64z"/>
			<path class="st2" d="M1551.56,1556.61h-12.53v-35.71c0-7.83-2.3-17.17-13.28-17.17c-7.45,0-12.43,5.4-14.07,10.75
				c-0.46,1.27-0.72,3.05-0.72,4.92v37.21h-12.53v-44.98c0-6.81-0.15-11.7-0.5-16.36l-0.06-0.81h11.29l0.54,8.68
				c3.41-5.14,10.04-10.05,19.68-10.05c3.7,0,22.17,1.28,22.17,26.56V1556.61z M1540.54,1555.11h9.53v-35.46
				c0-23.85-17.22-25.06-20.67-25.06c-10.06,0-16.61,5.68-19.38,11l-0.21,0.4h-1.41l-0.63-10.02h-8.26
				c0.31,4.46,0.45,9.21,0.45,15.66v43.48h9.53v-35.71c0-2.07,0.28-3.98,0.8-5.39c1.79-5.84,7.28-11.77,15.49-11.77
				c9.53,0,14.78,6.63,14.78,18.67V1555.11z"/>
		</g>
		<g>
			<path class="st2" d="M1620.97,1495.22c-0.25,4.38-0.5,9.27-0.5,16.66v35.21c0,13.91-2.76,22.43-8.64,27.69
				c-5.89,5.51-14.41,7.27-22.05,7.27c-7.27,0-15.29-1.75-20.17-5.01l2.76-8.39c4.01,2.51,10.27,4.76,17.79,4.76
				c11.28,0,19.55-5.89,19.55-21.17v-6.77h-0.25c-3.38,5.64-9.9,10.15-19.29,10.15c-15.03,0-25.81-12.78-25.81-29.57
				c0-20.55,13.41-32.2,27.31-32.2c10.52,0,16.29,5.51,18.92,10.52h0.25l0.5-9.15H1620.97z M1609.57,1519.15
				c0-1.88-0.13-3.51-0.63-5.01c-2-6.39-7.39-11.65-15.41-11.65c-10.52,0-18.04,8.9-18.04,22.93c0,11.9,6.01,21.8,17.92,21.8
				c6.77,0,12.91-4.26,15.29-11.28c0.63-1.88,0.88-4.01,0.88-5.89V1519.15z"/>
			<path class="st2" d="M1589.78,1582.8c-7.95,0-15.83-1.97-20.59-5.14l-0.47-0.32l3.23-9.84l0.81,0.51
				c2.24,1.4,8.41,4.65,17.39,4.65c8.58,0,18.8-3.54,18.8-20.42v-4.67c-4.17,5.62-10.9,8.8-18.8,8.8
				c-15.14,0-26.56-13.03-26.56-30.32c0-21.63,14.12-32.95,28.06-32.95c10.6,0,16.07,5.5,18.53,9.17l0.43-7.79h11.15l-0.04,0.79
				c-0.26,4.63-0.5,9.38-0.5,16.62v35.21c0,14.04-2.74,22.75-8.89,28.25C1605.74,1581.5,1596.43,1582.8,1589.78,1582.8z
				 M1570.5,1576.72c4.51,2.79,11.99,4.58,19.28,4.58c6.38,0,15.3-1.23,21.54-7.06c5.82-5.2,8.41-13.57,8.41-27.14v-35.21
				c0-6.87,0.21-11.51,0.46-15.91h-8.14l-0.5,9.15h-1.41l-0.21-0.4c-1.98-3.78-7-10.12-18.26-10.12c-13.2,0-26.56,10.8-26.56,31.45
				c0,16.7,10.54,28.82,25.06,28.82c8.12,0,14.92-3.57,18.65-9.78l0.22-0.36h1.43v7.52c0,14.14-7.21,21.92-20.3,21.92
				c-6.24,0-12.51-1.59-17.37-4.38L1570.5,1576.72z M1593.41,1547.97c-11.34,0-18.67-8.85-18.67-22.55
				c0-14.16,7.55-23.68,18.79-23.68c9.07,0,14.28,6.29,16.13,12.18c0.58,1.75,0.66,3.63,0.66,5.24v10.9c0,2.18-0.33,4.36-0.92,6.13
				C1606.98,1543.34,1600.7,1547.97,1593.41,1547.97z M1593.53,1503.24c-10.34,0-17.29,8.91-17.29,22.18
				c0,9.71,4.5,21.05,17.17,21.05c6.64,0,12.36-4.23,14.58-10.77c0.54-1.62,0.84-3.62,0.84-5.65v-10.9c0-2.11-0.18-3.54-0.59-4.78
				C1606.54,1508.99,1601.79,1503.24,1593.53,1503.24z"/>
		</g>
		<g>
			<path class="st2" d="M1634.25,1549.35c0-4.64,3.13-7.89,7.52-7.89c4.39,0,7.39,3.26,7.39,7.89c0,4.51-2.88,7.89-7.52,7.89
				C1637.26,1557.24,1634.25,1553.86,1634.25,1549.35z"/>
			<path class="st2" d="M1641.64,1557.99c-4.72,0-8.14-3.63-8.14-8.64s3.48-8.64,8.27-8.64c4.79,0,8.14,3.55,8.14,8.64
				S1646.51,1557.99,1641.64,1557.99z M1641.77,1542.21c-3.98,0-6.77,2.94-6.77,7.14s2.73,7.14,6.64,7.14
				c4.05,0,6.77-2.87,6.77-7.14S1645.74,1542.21,1641.77,1542.21z"/>
		</g>
	</g>
	<g>
		<g>
			<path class="st2" d="M752.04,1631.3c3.39-0.61,7.64-1.13,12.59-1.13c6.94,0,12.24,1.82,15.45,4.95c2.86,2.69,4.51,6.6,4.51,11.46
				c0,5.03-1.39,8.77-4.08,11.72c-3.73,4.25-9.98,6.51-17.19,6.51c-2.69,0-5.03-0.09-7.12-0.69v25h-4.17V1631.3z M756.21,1660.47
				c2,0.69,4.6,0.87,7.47,0.87c10.5,0,16.75-5.03,16.75-14.32c0-9.2-6.68-13.37-15.97-13.37c-3.82,0-6.68,0.35-8.25,0.69V1660.47z"
				/>
			<path class="st2" d="M756.96,1689.86h-5.67v-59.19l0.62-0.11c4.22-0.76,8.5-1.14,12.72-1.14c6.98,0,12.5,1.78,15.97,5.16
				c3.1,2.91,4.74,7.06,4.74,12c0,5.07-1.4,9.07-4.27,12.22c-3.82,4.35-10.12,6.76-17.74,6.76c-2.54,0-4.55-0.09-6.37-0.48V1689.86z
				 M752.79,1688.36h2.67v-25.25l0.96,0.28c1.9,0.55,4.05,0.66,6.91,0.66c7.18,0,13.08-2.22,16.63-6.26
				c2.66-2.92,3.89-6.48,3.89-11.22c0-4.51-1.48-8.28-4.28-10.91c-3.19-3.11-8.35-4.74-14.94-4.74c-3.93,0-7.91,0.34-11.84,1.01
				V1688.36z M763.67,1662.08c-3.52,0-5.9-0.28-7.71-0.91l-0.5-0.17v-27.26l0.59-0.13c2.01-0.45,5.15-0.71,8.41-0.71
				c10.63,0,16.72,5.15,16.72,14.12C781.18,1656.59,774.8,1662.08,763.67,1662.08z M756.96,1659.92c1.59,0.46,3.7,0.67,6.72,0.67
				c10.32,0,16-4.82,16-13.57c0-8.02-5.55-12.62-15.22-12.62c-3.82,0-6.32,0.35-7.5,0.56V1659.92z"/>
		</g>
		<g>
			<path class="st2" d="M794.92,1627.39h4.17v61.72h-4.17V1627.39z"/>
			<path class="st2" d="M799.84,1689.86h-5.67v-63.22h5.67V1689.86z M795.67,1688.36h2.67v-60.22h-2.67V1688.36z"/>
		</g>
		<g>
			<path class="st2" d="M813.93,1667.84c0,13.28,7.29,18.58,15.89,18.58c6.08,0,9.2-1.22,11.55-2.34l1.04,3.21
				c-1.56,0.87-5.82,2.69-13.11,2.69c-11.98,0-19.44-8.68-19.44-20.92c0-13.89,7.99-22.57,18.75-22.57
				c13.63,0,16.23,12.85,16.23,18.84c0,1.13,0,1.74-0.17,2.52H813.93z M840.5,1664.55c0.09-5.82-2.34-14.58-12.41-14.58
				c-9.2,0-13.11,8.16-13.89,14.58H840.5z"/>
			<path class="st2" d="M829.3,1690.73c-12.08,0-20.19-8.71-20.19-21.67c0-13.95,7.84-23.32,19.5-23.32
				c16.51,0,16.98,17.58,16.98,19.59c0,1.13,0,1.82-0.19,2.68l-0.13,0.59h-30.57c0.24,10.87,5.72,17.08,15.13,17.08
				c5.72,0,8.77-1.09,11.22-2.27l0.77-0.37l1.5,4.62l-0.54,0.3C841.26,1688.78,836.93,1690.73,829.3,1690.73z M828.6,1647.24
				c-10.77,0-18,8.77-18,21.82c0,12.06,7.51,20.17,18.69,20.17c6.56,0,10.57-1.53,12.2-2.31l-0.58-1.8
				c-2.49,1.11-5.66,2.06-11.09,2.06c-10.42,0-16.64-7.23-16.64-19.33v-0.75h30.85c0.06-0.48,0.06-0.98,0.06-1.77
				C844.09,1663.47,843.65,1647.24,828.6,1647.24z M841.23,1665.29h-27.89l0.1-0.84c0.86-7.03,5.2-15.24,14.63-15.24
				c3.75,0,6.8,1.16,9.07,3.46c3.8,3.86,4.13,9.6,4.1,11.88L841.23,1665.29z M815.06,1663.79h24.69c-0.06-2.42-0.61-6.97-3.66-10.07
				c-1.97-2-4.66-3.01-8-3.01C820,1650.71,816.07,1657.58,815.06,1663.79z"/>
		</g>
		<g>
			<path class="st2" d="M881.38,1679.22c0,3.3,0.09,6.68,0.61,9.9h-3.82l-0.61-5.99h-0.17c-2.08,3.21-6.68,6.94-13.37,6.94
				c-8.42,0-12.24-5.9-12.24-11.46c0-9.64,8.42-15.45,25.43-15.28v-1.13c0-4.08-0.78-12.33-10.68-12.24c-3.65,0-7.47,0.95-10.5,3.13
				l-1.3-3.04c3.82-2.52,8.51-3.56,12.24-3.56c12.07,0,14.41,9.03,14.41,16.41V1679.22z M877.21,1666.8
				c-9.11-0.26-21.09,1.13-21.09,11.11c0,5.99,3.99,8.68,8.33,8.68c6.94,0,10.94-4.25,12.33-8.33c0.35-0.87,0.43-1.82,0.43-2.52
				V1666.8z"/>
			<path class="st2" d="M864.02,1690.82c-8.93,0-12.99-6.33-12.99-12.21c0-3.92,1.32-7.21,3.92-9.79
				c4.19-4.14,11.42-6.24,21.51-6.24h0v-0.38c0-4.2-0.94-7.18-2.87-9.09c-1.63-1.62-3.98-2.4-7.05-2.4c-3.8,0-7.38,1.06-10.07,2.99
				l-0.76,0.54l-1.92-4.47l0.52-0.34c3.5-2.31,8.23-3.68,12.65-3.68c9.92,0,15.16,5.93,15.16,17.16v16.32c0,3.16,0.07,6.53,0.6,9.78
				l0.14,0.87h-5.38l-0.5-4.95C874.42,1687.97,869.96,1690.82,864.02,1690.82z M876.49,1664.08c-9.57,0-16.64,2-20.48,5.81
				c-2.31,2.29-3.48,5.22-3.48,8.72c0,5.16,3.6,10.71,11.49,10.71c6.24,0,10.67-3.41,12.74-6.6l0.22-0.34h1.26l0.61,5.99h2.27
				c-0.42-3.07-0.49-6.2-0.49-9.15v-16.32c0-10.39-4.6-15.66-13.66-15.66c-3.92,0-8.09,1.15-11.3,3.1l0.69,1.62
				c2.88-1.8,6.55-2.76,10.33-2.75c3.38,0,6.06,0.95,7.96,2.83c2.23,2.21,3.31,5.53,3.31,10.16v1.89l-0.76-0.01
				C876.97,1664.08,876.73,1664.08,876.49,1664.08z M864.45,1687.34c-4.19,0-9.08-2.47-9.08-9.43c0-2.93,0.98-5.37,2.91-7.25
				c3.42-3.32,9.79-4.87,18.95-4.61l0.73,0.02v9.67c0,0.72-0.08,1.79-0.49,2.8C876.03,1682.78,871.85,1687.34,864.45,1687.34z
				 M875.27,1667.52c-7.7,0-13.06,1.42-15.94,4.22c-1.65,1.61-2.46,3.63-2.46,6.17c0,5.85,3.92,7.93,7.58,7.93
				c6.6,0,10.33-4.04,11.62-7.82c0.33-0.82,0.39-1.69,0.39-2.28v-8.21C876.06,1667.53,875.66,1667.52,875.27,1667.52z"/>
		</g>
		<g>
			<path class="st2" d="M893.1,1683.64c2.26,1.39,5.64,2.86,9.38,2.86c6.6,0,9.72-3.56,9.72-7.9c0-4.6-2.78-7.03-8.77-9.46
				c-6.86-2.6-10.59-6.34-10.59-11.37c0-6.08,4.77-11.29,12.85-11.29c3.82,0,7.12,1.13,9.2,2.6l-1.56,3.39
				c-1.48-1.04-4.17-2.52-8.33-2.52c-5.3,0-8.07,3.39-8.07,7.2c0,4.34,2.95,6.16,8.59,8.51c6.77,2.69,10.76,6.08,10.76,12.41
				c0,7.12-5.56,11.89-14.06,11.89c-3.99,0-7.81-1.13-10.59-2.86L893.1,1683.64z"/>
			<path class="st2" d="M902.21,1690.73c-3.95,0-7.96-1.09-10.99-2.98l-0.54-0.34l2.07-4.86l0.74,0.46
				c1.67,1.03,5.06,2.75,8.98,2.75c5.53,0,8.97-2.74,8.97-7.15c0-3.99-2.17-6.28-8.3-8.77c-7.33-2.78-11.06-6.85-11.06-12.07
				c0-5.98,4.67-12.04,13.6-12.04c3.66,0,7.17,1,9.63,2.74l0.51,0.36l-2.2,4.77l-0.74-0.52c-2.24-1.58-4.9-2.38-7.9-2.38
				c-5.06,0-7.32,3.24-7.32,6.45c0,3.8,2.51,5.48,8.13,7.82c5.55,2.2,11.23,5.49,11.23,13.11
				C917.03,1685.65,911.07,1690.73,902.21,1690.73z M892.57,1686.81c2.72,1.55,6.2,2.42,9.64,2.42c8.09,0,13.31-4.37,13.31-11.14
				c0-5.42-2.98-8.81-10.29-11.72c-5.31-2.21-9.07-4.16-9.07-9.21c0-3.83,2.76-7.95,8.82-7.95c2.99,0,5.69,0.73,8.02,2.16l0.93-2.01
				c-2.16-1.34-5.19-2.12-8.25-2.12c-7.12,0-12.1,4.33-12.1,10.54c0,4.53,3.4,8.12,10.11,10.67c5.72,2.32,9.25,4.83,9.25,10.16
				c0,5.25-4.11,8.65-10.47,8.65c-3.76,0-7.05-1.43-9.02-2.54L892.57,1686.81z"/>
		</g>
		<g>
			<path class="st2" d="M927.82,1667.84c0,13.28,7.29,18.58,15.89,18.58c6.08,0,9.2-1.22,11.55-2.34l1.04,3.21
				c-1.56,0.87-5.82,2.69-13.11,2.69c-11.98,0-19.44-8.68-19.44-20.92c0-13.89,7.99-22.57,18.75-22.57
				c13.63,0,16.23,12.85,16.23,18.84c0,1.13,0,1.74-0.17,2.52H927.82z M954.38,1664.55c0.09-5.82-2.34-14.58-12.41-14.58
				c-9.2,0-13.11,8.16-13.89,14.58H954.38z"/>
			<path class="st2" d="M943.18,1690.73c-12.08,0-20.2-8.71-20.2-21.67c0-13.95,7.84-23.32,19.5-23.32
				c16.51,0,16.98,17.58,16.98,19.59c0,1.13,0,1.82-0.19,2.68l-0.13,0.59h-30.57c0.24,10.87,5.72,17.08,15.13,17.08
				c5.72,0,8.77-1.09,11.22-2.27l0.77-0.37l1.5,4.62l-0.54,0.3C955.15,1688.78,950.81,1690.73,943.18,1690.73z M942.49,1647.24
				c-10.77,0-18,8.77-18,21.82c0,12.06,7.51,20.17,18.7,20.17c6.5,0,10.43-1.45,12.2-2.31l-0.58-1.8
				c-2.49,1.11-5.66,2.06-11.09,2.06c-10.42,0-16.64-7.23-16.64-19.33v-0.75h30.85c0.06-0.48,0.06-0.98,0.06-1.77
				C957.97,1663.47,957.54,1647.24,942.49,1647.24z M955.12,1665.29h-27.89l0.1-0.84c0.86-7.03,5.2-15.24,14.63-15.24
				c3.75,0,6.8,1.16,9.07,3.46c3.8,3.86,4.13,9.6,4.1,11.88L955.12,1665.29z M928.94,1663.79h24.69c-0.06-2.42-0.61-6.97-3.66-10.07
				c-1.97-2-4.66-3.01-8-3.01C933.88,1650.71,929.95,1657.58,928.94,1663.79z"/>
		</g>
		<g>
			<path class="st2" d="M994.05,1638.24v9.2h11.89v3.39h-11.89v27.08c0,5.3,1.65,8.59,6.08,8.59c2.17,0,3.73-0.26,4.77-0.61
				l0.52,3.13c-1.39,0.52-3.3,0.96-5.82,0.96c-3.04,0-5.56-0.96-7.12-2.86c-1.91-2.17-2.6-5.73-2.6-9.98v-26.3h-7.03v-3.39h7.03
				v-7.64L994.05,1638.24z"/>
			<path class="st2" d="M999.61,1690.73c-3.36,0-6.02-1.09-7.7-3.14c-1.86-2.11-2.77-5.54-2.77-10.46v-25.55h-7.03v-4.88h7.03v-7.41
				l5.67-2.13v9.53h11.89v4.88H994.8v26.33c0,7.03,3.04,7.84,5.33,7.84c2.34,0,3.76-0.31,4.54-0.57l0.83-0.28l0.77,4.6l-0.58,0.22
				C1003.92,1690.39,1001.87,1690.73,999.61,1690.73z M983.6,1650.08h7.03v27.05c0,4.54,0.79,7.64,2.42,9.49
				c1.4,1.71,3.66,2.61,6.56,2.61c1.83,0,3.5-0.24,4.97-0.71l-0.28-1.68c-1.15,0.27-2.57,0.41-4.17,0.41
				c-4.53,0-6.83-3.14-6.83-9.34v-27.83h11.89v-1.88H993.3v-8.87l-2.67,1v7.87h-7.03V1650.08z"/>
		</g>
		<g>
			<path class="st2" d="M1015.06,1659.94c0-4.17-0.09-8.42-0.35-12.5h3.82l0.17,8.42h0.26c1.82-5.3,6.16-9.38,11.81-9.38
				c0.61,0,1.22,0.09,1.74,0.17v3.91c-0.61-0.09-1.22-0.09-2-0.09c-5.73,0-9.81,4.95-10.94,11.63c-0.26,1.22-0.35,2.6-0.35,3.99v23
				h-4.17V1659.94z"/>
			<path class="st2" d="M1019.98,1689.86h-5.67v-29.92c0-4.73-0.11-8.81-0.35-12.45l-0.05-0.8h5.35l0.13,6.33
				c2.44-4.5,6.69-7.28,11.38-7.28c0.67,0,1.31,0.09,1.86,0.18l0.63,0.1v5.41l-0.86-0.12c-0.56-0.08-1.12-0.08-1.89-0.08
				c-5.07,0-9.07,4.32-10.2,11.01c-0.23,1.07-0.34,2.33-0.34,3.87V1689.86z M1015.81,1688.36h2.67v-22.25
				c0-1.65,0.12-3.01,0.36-4.15c1.25-7.41,5.83-12.22,11.67-12.22c0.46,0,0.86,0,1.25,0.02v-2.44c-0.32-0.04-0.66-0.07-0.99-0.07
				c-4.96,0-9.21,3.4-11.1,8.87l-0.17,0.51h-1.53l-0.17-8.42h-2.29c0.2,3.47,0.3,7.33,0.3,11.75V1688.36z"/>
		</g>
		<g>
			<path class="st2" d="M1041.71,1647.44l10.94,27.26c1.13,2.95,2.26,6.34,3.04,8.94h0.17c0.87-2.52,1.91-5.82,3.21-9.2l10.16-27
				h4.43l-12.5,31.08c-5.03,12.93-8.59,20.66-14.06,25.43c-3.3,2.78-6.34,3.99-7.29,4.34l-1.3-3.47c2.08-0.78,4.77-2.26,7.29-4.6
				c2.08-2.08,4.86-5.56,6.94-10.5c0.35-0.87,0.52-1.39,0.52-1.82c0-0.35-0.17-0.96-0.52-1.82l-15.45-38.63H1041.71z"/>
			<path class="st2" d="M1039.36,1709.25l-1.83-4.87l0.7-0.26c1.42-0.53,4.22-1.82,7.04-4.45c1.92-1.92,4.67-5.27,6.76-10.25
				c0.29-0.73,0.46-1.22,0.46-1.53c0-0.09-0.03-0.46-0.47-1.54l-15.86-39.66h6.04l11.13,27.73c0.82,2.14,1.7,4.66,2.46,7.06
				c0.04-0.11,0.07-0.22,0.11-0.32c0.71-2.12,1.51-4.52,2.46-6.98l10.34-27.48h6.06l-12.91,32.11c-5.3,13.61-8.79,20.94-14.27,25.72
				c-3.29,2.77-6.36,4.06-7.53,4.48L1039.36,1709.25z M1039.46,1705.25l0.78,2.07c1.37-0.57,3.79-1.77,6.37-3.94
				c5.23-4.57,8.64-11.75,13.85-25.13l12.09-30.05h-2.8l-9.97,26.51c-0.94,2.44-1.74,4.82-2.44,6.92c-0.27,0.8-0.52,1.56-0.76,2.26
				l-0.17,0.51h-1.27l-0.16-0.53c-0.86-2.88-1.99-6.2-3.02-8.89l-10.75-26.77h-2.81l15.04,37.6c0.39,0.98,0.57,1.65,0.57,2.1
				c0,0.56-0.19,1.15-0.57,2.1c-2.19,5.21-5.08,8.72-7.11,10.76C1043.7,1703.2,1041.1,1704.55,1039.46,1705.25z"/>
		</g>
		<g>
			<path class="st2" d="M1126.52,1679.22c0,3.3,0.09,6.68,0.61,9.9h-3.82l-0.61-5.99h-0.17c-2.08,3.21-6.68,6.94-13.37,6.94
				c-8.42,0-12.24-5.9-12.24-11.46c0-9.64,8.42-15.45,25.43-15.28v-1.13c0-4.08-0.78-12.33-10.68-12.24c-3.65,0-7.46,0.95-10.5,3.13
				l-1.3-3.04c3.82-2.52,8.51-3.56,12.24-3.56c12.07,0,14.41,9.03,14.41,16.41V1679.22z M1122.35,1666.8
				c-9.12-0.26-21.09,1.13-21.09,11.11c0,5.99,3.99,8.68,8.33,8.68c6.94,0,10.94-4.25,12.33-8.33c0.35-0.87,0.43-1.82,0.43-2.52
				V1666.8z"/>
			<path class="st2" d="M1109.15,1690.82c-8.92,0-12.99-6.33-12.99-12.21c0-3.92,1.32-7.21,3.92-9.79
				c4.19-4.14,11.42-6.24,21.51-6.24h0v-0.38c0-4.2-0.94-7.18-2.87-9.09c-1.61-1.59-3.93-2.4-6.91-2.4c-0.05,0-0.1,0-0.15,0
				c-3.8,0-7.38,1.06-10.08,2.99l-0.76,0.54l-1.92-4.47l0.52-0.34c3.5-2.31,8.23-3.68,12.65-3.68c9.92,0,15.16,5.93,15.16,17.16
				v16.32c0,3.16,0.07,6.53,0.6,9.78l0.14,0.87h-5.38l-0.5-4.95C1119.56,1687.97,1115.1,1690.82,1109.15,1690.82z M1121.63,1664.08
				c-9.57,0-16.64,2-20.48,5.81c-2.31,2.29-3.48,5.22-3.48,8.72c0,5.16,3.6,10.71,11.49,10.71c6.24,0,10.67-3.41,12.74-6.6
				l0.22-0.34h1.26l0.61,5.99h2.27c-0.42-3.07-0.49-6.2-0.49-9.15v-16.32c0-10.39-4.6-15.66-13.66-15.66c-3.92,0-8.1,1.15-11.3,3.1
				l0.7,1.62c2.88-1.8,6.5-2.76,10.33-2.75c3.38,0,6.06,0.95,7.96,2.83c2.23,2.21,3.31,5.53,3.31,10.16v1.89l-0.76-0.01
				C1122.1,1664.08,1121.87,1664.08,1121.63,1664.08z M1109.59,1687.34c-4.19,0-9.08-2.47-9.08-9.43c0-2.93,0.98-5.37,2.91-7.25
				c3.42-3.32,9.79-4.87,18.95-4.61l0.73,0.02v9.67c0,0.72-0.08,1.79-0.49,2.8C1121.17,1682.78,1116.98,1687.34,1109.59,1687.34z
				 M1120.4,1667.52c-7.7,0-13.06,1.42-15.94,4.22c-1.65,1.61-2.46,3.63-2.46,6.17c0,5.85,3.92,7.93,7.58,7.93
				c6.6,0,10.33-4.04,11.62-7.82c0.33-0.82,0.39-1.69,0.39-2.28v-8.21C1121.2,1667.53,1120.8,1667.52,1120.4,1667.52z"/>
		</g>
		<g>
			<path class="st2" d="M1173.22,1683.04c0,10.68-2.26,15.97-5.73,19.27c-3.82,3.65-9.46,4.95-14.15,4.95
				c-4.77,0-10.07-1.22-13.28-3.65l1.48-3.3c2.95,1.91,7.03,3.47,12.41,3.47c8.77,0,15.1-4.51,15.1-16.84v-5.9h-0.17
				c-2.17,4.25-7.03,8.07-14.5,8.07c-10.5,0-17.88-9.11-17.88-20.49c0-14.5,9.55-22.14,18.75-22.14c8.25,0,12.33,4.51,14.06,7.99
				h0.17l0.26-7.03h3.82c-0.26,3.13-0.35,6.42-0.35,10.76V1683.04z M1169.05,1663.5c0-1.56-0.09-2.86-0.52-4.08
				c-1.74-4.95-6.08-9.46-12.93-9.46c-8.85,0-14.93,7.2-14.93,18.23c0,9.38,4.95,17.45,14.76,17.45c5.56,0,10.76-3.47,12.93-9.38
				c0.43-1.39,0.7-2.95,0.7-4.43V1663.5z"/>
			<path class="st2" d="M1153.34,1708c-5.38,0-10.64-1.46-13.73-3.8l-0.48-0.36l2.08-4.64l0.73,0.48c3.44,2.22,7.48,3.35,12.01,3.35
				c9.53,0,14.35-5.41,14.35-16.09v-3.55c-3,4.09-8.04,6.47-13.92,6.47c-10.62,0-18.63-9.13-18.63-21.24
				c0-15.02,9.81-22.89,19.5-22.89c7.53,0,11.58,3.69,13.57,6.47l0.21-5.52h5.36l-0.07,0.81c-0.24,2.9-0.34,6.1-0.34,10.7v24.83
				c0,9.79-1.84,15.9-5.96,19.82C1163.13,1707.5,1156.13,1708,1153.34,1708z M1140.99,1703.35c2.9,1.95,7.56,3.15,12.35,3.15
				c2.61,0,9.15-0.46,13.63-4.74c3.8-3.61,5.5-9.39,5.5-18.73v-24.83c0-4.22,0.09-7.28,0.29-10.01h-2.29l-0.26,7.03h-1.36
				l-0.21-0.42c-1.41-2.83-5.03-7.57-13.39-7.57c-8.95,0-18,7.35-18,21.39c0,11.25,7.37,19.74,17.13,19.74
				c6.21,0,11.38-2.87,13.83-7.66l0.21-0.41h1.38v6.65c0,14.54-8.62,17.59-15.85,17.59c-4.5,0-8.56-1.05-12.08-3.13L1140.99,1703.35
				z M1155.42,1686.39c-10.71,0-15.51-9.14-15.51-18.2c0-11.35,6.3-18.98,15.68-18.98c7.48,0,11.95,5.15,13.64,9.96
				c0.47,1.31,0.56,2.68,0.56,4.33v8.33c0,1.5-0.26,3.15-0.73,4.65C1166.86,1682.52,1161.5,1686.39,1155.42,1686.39z
				 M1155.6,1650.71c-8.48,0-14.18,7.02-14.18,17.48c0,7.7,3.67,16.7,14.01,16.7c5.45,0,10.25-3.49,12.23-8.88
				c0.42-1.33,0.65-2.82,0.65-4.17v-8.33c0-1.5-0.08-2.72-0.48-3.83C1167.08,1657.57,1164.02,1650.71,1155.6,1650.71z"/>
		</g>
		<g>
			<path class="st2" d="M1213.15,1679.22c0,3.3,0.09,6.68,0.61,9.9h-3.82l-0.61-5.99h-0.17c-2.08,3.21-6.68,6.94-13.37,6.94
				c-8.42,0-12.24-5.9-12.24-11.46c0-9.64,8.42-15.45,25.43-15.28v-1.13c0-4.08-0.78-12.33-10.68-12.24c-3.65,0-7.46,0.95-10.5,3.13
				l-1.3-3.04c3.82-2.52,8.51-3.56,12.24-3.56c12.07,0,14.41,9.03,14.41,16.41V1679.22z M1208.98,1666.8
				c-9.12-0.26-21.09,1.13-21.09,11.11c0,5.99,3.99,8.68,8.33,8.68c6.94,0,10.94-4.25,12.33-8.33c0.35-0.87,0.43-1.82,0.43-2.52
				V1666.8z"/>
			<path class="st2" d="M1195.79,1690.82c-8.92,0-12.99-6.33-12.99-12.21c0-3.92,1.32-7.21,3.92-9.79
				c4.19-4.14,11.42-6.24,21.51-6.24h0v-0.38c0-4.2-0.94-7.18-2.87-9.09c-1.61-1.59-3.93-2.4-6.91-2.4c-0.05,0-0.1,0-0.15,0
				c-3.8,0-7.38,1.06-10.08,2.99l-0.76,0.54l-1.92-4.47l0.52-0.34c3.5-2.31,8.23-3.68,12.65-3.68c9.92,0,15.16,5.93,15.16,17.16
				v16.32c0,3.16,0.07,6.53,0.6,9.78l0.14,0.87h-5.38l-0.5-4.95C1206.19,1687.97,1201.73,1690.82,1195.79,1690.82z M1208.26,1664.08
				c-9.57,0-16.64,2-20.48,5.81c-2.31,2.29-3.48,5.22-3.48,8.72c0,5.16,3.6,10.71,11.49,10.71c6.24,0,10.67-3.41,12.74-6.6
				l0.22-0.34h1.26l0.61,5.99h2.27c-0.42-3.07-0.49-6.2-0.49-9.15v-16.32c0-10.39-4.6-15.66-13.66-15.66c-3.92,0-8.1,1.15-11.3,3.1
				l0.7,1.62c2.88-1.8,6.51-2.76,10.33-2.75c3.38,0,6.06,0.95,7.96,2.83c2.23,2.21,3.31,5.53,3.31,10.16v1.89l-0.76-0.01
				C1208.74,1664.08,1208.5,1664.08,1208.26,1664.08z M1196.22,1687.34c-4.19,0-9.08-2.47-9.08-9.43c0-2.93,0.98-5.37,2.91-7.25
				c3.42-3.32,9.79-4.87,18.95-4.61l0.73,0.02v9.67c0,0.72-0.08,1.79-0.49,2.8C1207.8,1682.78,1203.61,1687.34,1196.22,1687.34z
				 M1207.04,1667.52c-7.7,0-13.06,1.42-15.94,4.22c-1.65,1.61-2.46,3.63-2.46,6.17c0,5.85,3.92,7.93,7.58,7.93
				c6.6,0,10.33-4.04,11.62-7.82c0.33-0.82,0.39-1.69,0.39-2.28v-8.21C1207.83,1667.53,1207.43,1667.52,1207.04,1667.52z"/>
		</g>
		<g>
			<path class="st2" d="M1228.51,1639.11c-1.91,0-3.21-1.65-3.21-3.56s1.48-3.65,3.39-3.65c1.91,0,3.3,1.65,3.3,3.65
				c0,1.91-1.3,3.56-3.38,3.56H1228.51z M1226.6,1689.11v-41.67h4.17v41.67H1226.6z"/>
			<path class="st2" d="M1231.52,1689.86h-5.67v-43.17h5.67V1689.86z M1227.35,1688.36h2.67v-40.17h-2.67V1688.36z M1228.6,1639.86
				h-0.09c-2.22,0-3.96-1.89-3.96-4.31c0-2.38,1.89-4.4,4.14-4.4c2.27,0,4.05,1.93,4.05,4.4
				C1232.73,1638.01,1230.96,1639.86,1228.6,1639.86z M1228.69,1632.66c-1.43,0-2.64,1.33-2.64,2.9c0,1.36,0.86,2.81,2.46,2.81h0.09
				c1.73,0,2.63-1.41,2.63-2.81C1231.23,1633.9,1230.14,1632.66,1228.69,1632.66z"/>
		</g>
		<g>
			<path class="st2" d="M1244.74,1657.43c0-3.82-0.09-6.68-0.35-9.98h3.91l0.26,7.47h0.17c2.26-4.69,7.55-8.42,14.32-8.42
				c3.99,0,14.58,2,14.58,17.62v25h-4.17v-24.65c0-7.64-2.95-14.5-11.55-14.5c-5.82,0-10.85,4.17-12.5,9.64
				c-0.26,0.96-0.52,2.34-0.52,3.65v25.87h-4.17V1657.43z"/>
			<path class="st2" d="M1278.4,1689.86h-5.67v-25.4c0-5.13-1.4-13.75-10.8-13.75c-5.32,0-10.17,3.74-11.78,9.1
				c-0.3,1.12-0.49,2.41-0.49,3.43v26.62H1244v-32.43c0-3.99-0.1-6.78-0.34-9.92l-0.06-0.81h5.44l0.21,5.89
				c2.96-4.22,8.15-6.85,13.83-6.85c2.56,0,15.33,0.89,15.33,18.37V1689.86z M1274.23,1688.36h2.67v-24.25
				c0-16.06-11.52-16.87-13.83-16.87c-5.95,0-11.31,3.14-13.65,8l-0.2,0.42h-1.37l-0.26-7.46h-2.37c0.21,2.87,0.29,5.54,0.29,9.23
				v30.93h2.67v-25.12c0-1.65,0.38-3.24,0.55-3.84c1.81-6.01,7.25-10.19,13.22-10.19c7.81,0,12.3,5.56,12.3,15.25V1688.36z"/>
		</g>
		<g>
			<path class="st2" d="M1292.32,1690.07c-2,0-3.47-1.82-3.39-3.91c0-2.26,1.48-3.91,3.56-3.91c2.08,0,3.47,1.65,3.47,3.91
				c0,2.08-1.39,3.91-3.56,3.91H1292.32z"/>
			<path class="st2" d="M1292.4,1690.82h-0.09c-1.08,0-2.1-0.44-2.87-1.24c-0.86-0.89-1.32-2.15-1.26-3.45
				c0-2.67,1.81-4.63,4.31-4.63c2.45,0,4.22,1.96,4.22,4.66C1296.71,1688.81,1294.86,1690.82,1292.4,1690.82z M1292.49,1683
				c-1.65,0-2.81,1.3-2.81,3.16c-0.04,0.92,0.27,1.78,0.85,2.38c0.34,0.36,0.93,0.78,1.79,0.78h0.09c1.84,0,2.81-1.59,2.81-3.16
				C1295.21,1684.27,1294.12,1683,1292.49,1683z"/>
		</g>
	</g>
	<g>
		<g>
			<circle class="st4" cx="1404.64" cy="623.41" r="148.44"/>
			<path class="st2" d="M1404.64,772.6c-82.26,0-149.19-66.93-149.19-149.19s66.93-149.19,149.19-149.19s149.19,66.93,149.19,149.19
				S1486.9,772.6,1404.64,772.6z M1404.64,475.72c-81.44,0-147.69,66.25-147.69,147.69s66.25,147.69,147.69,147.69
				s147.69-66.25,147.69-147.69S1486.08,475.72,1404.64,475.72z"/>
		</g>
		<g>
			<g>
				<circle class="st2" cx="1349.38" cy="601.06" r="18.02"/>
				<path class="st2" d="M1349.38,619.82c-10.35,0-18.77-8.42-18.77-18.77c0-10.35,8.42-18.77,18.77-18.77s18.77,8.42,18.77,18.77
					C1368.15,611.4,1359.73,619.82,1349.38,619.82z M1349.38,583.79c-9.52,0-17.27,7.75-17.27,17.27c0,9.52,7.75,17.27,17.27,17.27
					s17.27-7.75,17.27-17.27C1366.65,591.53,1358.9,583.79,1349.38,583.79z"/>
			</g>
			<g>
				<circle class="st2" cx="1459.9" cy="601.06" r="18.02"/>
				<path class="st2" d="M1459.9,619.82c-10.35,0-18.77-8.42-18.77-18.77c0-10.35,8.42-18.77,18.77-18.77s18.77,8.42,18.77,18.77
					C1478.67,611.4,1470.25,619.82,1459.9,619.82z M1459.9,583.79c-9.52,0-17.27,7.75-17.27,17.27c0,9.52,7.75,17.27,17.27,17.27
					s17.27-7.75,17.27-17.27C1477.17,591.53,1469.42,583.79,1459.9,583.79z"/>
			</g>
		</g>
		<g>
			<g>
				<path class="st2" d="M1444.88,697.76c-1.74,0-3.44-0.88-4.41-2.48c-6.26-10.31-20.26-16.97-35.69-16.97
					c-15.63,0-29.75,6.62-35.96,16.86c-1.48,2.43-4.65,3.21-7.08,1.73c-2.43-1.48-3.21-4.65-1.73-7.08
					c8.04-13.26,25.62-21.82,44.78-21.82c18.95,0,36.42,8.61,44.5,21.93c1.48,2.43,0.7,5.6-1.73,7.08
					C1446.71,697.52,1445.79,697.76,1444.88,697.76z"/>
				<path class="st2" d="M1444.88,698.51c-2.08,0-3.97-1.06-5.05-2.84c-6.12-10.09-19.88-16.61-35.05-16.61
					c-15.38,0-29.24,6.48-35.32,16.5c-0.82,1.35-2.11,2.3-3.65,2.67c-1.53,0.38-3.12,0.13-4.47-0.69c-1.35-0.82-2.3-2.11-2.67-3.65
					c-0.38-1.53-0.13-3.12,0.69-4.47c8.18-13.48,26.01-22.18,45.42-22.18c19.21,0,36.92,8.75,45.14,22.29
					c0.82,1.35,1.06,2.94,0.69,4.47c-0.38,1.53-1.32,2.83-2.67,3.65C1447.01,698.21,1445.96,698.51,1444.88,698.51L1444.88,698.51
					C1444.88,698.51,1444.88,698.51,1444.88,698.51z M1404.78,677.56c15.68,0,29.94,6.8,36.33,17.33c0.8,1.33,2.21,2.12,3.77,2.12
					c0,0,0,0,0,0l0,0c0.8,0,1.59-0.22,2.28-0.64c1.01-0.61,1.71-1.58,1.99-2.72c0.28-1.14,0.1-2.33-0.51-3.33
					c-7.95-13.1-25.17-21.57-43.86-21.57c-18.9,0-36.23,8.42-44.14,21.46c-0.61,1.01-0.79,2.19-0.51,3.33
					c0.28,1.14,0.99,2.11,1.99,2.72c1.01,0.61,2.19,0.79,3.33,0.51c1.14-0.28,2.11-0.99,2.72-1.99
					C1374.52,684.32,1388.89,677.56,1404.78,677.56z"/>
			</g>
		</g>
		<g>
			<g>
				<path class="st2" d="M1321.32,580.77c-1.36,0-2.48-1.09-2.5-2.46c-0.02-1.38,1.08-2.52,2.46-2.54
					c27.01-0.42,35.56-14.41,35.91-15c0.7-1.19,2.22-1.59,3.42-0.9c1.19,0.69,1.6,2.21,0.91,3.4c-0.4,0.7-10.13,17.04-40.17,17.5
					C1321.35,580.77,1321.34,580.77,1321.32,580.77z"/>
				<path class="st2" d="M1321.32,581.52c-1.76,0-3.22-1.44-3.25-3.2c-0.03-1.79,1.41-3.27,3.2-3.3
					c26.6-0.41,34.94-14.05,35.28-14.63c0.91-1.54,2.9-2.06,4.44-1.17c1.54,0.9,2.07,2.88,1.19,4.42
					c-0.41,0.71-10.35,17.41-40.8,17.88L1321.32,581.52z M1359.36,560.29c-0.6,0-1.19,0.31-1.52,0.87
					c-0.36,0.61-9.12,14.95-36.55,15.37c-0.96,0.01-1.74,0.81-1.72,1.78c0.01,0.95,0.8,1.72,1.75,1.72v0.75l0.01-0.75
					c29.63-0.46,39.15-16.44,39.54-17.12c0.48-0.83,0.19-1.9-0.64-2.38C1359.96,560.36,1359.66,560.29,1359.36,560.29z"/>
			</g>
		</g>
		<g>
			<g>
				<path class="st2" d="M1486.2,580.77c-0.01,0-0.03,0-0.04,0c-30.04-0.46-39.77-16.81-40.17-17.5c-0.69-1.2-0.27-2.73,0.92-3.41
					c1.19-0.68,2.72-0.28,3.41,0.91c0.37,0.62,8.93,14.59,35.91,15c1.38,0.02,2.48,1.16,2.46,2.54
					C1488.68,579.68,1487.56,580.77,1486.2,580.77z"/>
				<path class="st2" d="M1486.2,581.52l-0.07,0c-30.44-0.47-40.38-17.17-40.79-17.88c-0.89-1.55-0.35-3.54,1.2-4.44
					c1.55-0.89,3.54-0.35,4.43,1.19c0.34,0.58,8.69,14.22,35.28,14.63c1.79,0.03,3.23,1.51,3.2,3.3
					C1489.42,580.09,1487.96,581.52,1486.2,581.52z M1448.16,560.28c-0.3,0-0.59,0.07-0.87,0.23c-0.84,0.48-1.13,1.55-0.65,2.39
					c0.39,0.68,9.91,16.67,39.53,17.12l0.03,0.75v-0.75c0.95,0,1.73-0.77,1.75-1.72c0.01-0.96-0.76-1.76-1.72-1.78
					c-27.42-0.42-36.19-14.76-36.55-15.37C1449.35,560.59,1448.76,560.28,1448.16,560.28z"/>
			</g>
		</g>
	</g>
	<g>
		<path class="st0" d="M536.17,685.67c0-21.06,38.13-108.4,38.13-108.4s38.13,87.35,38.13,108.4c0,21.06-17.07,38.13-38.13,38.13
			S536.17,706.73,536.17,685.67z"/>
		<path class="st2" d="M574.3,724.55c-21.44,0-38.88-17.44-38.88-38.88c0-20.97,36.63-105.13,38.19-108.7l0.69-1.57l0.69,1.57
			c1.56,3.57,38.19,87.73,38.19,108.7C613.18,707.1,595.74,724.55,574.3,724.55z M574.3,579.15
			c-5.15,11.94-37.38,87.41-37.38,106.52c0,20.61,16.77,37.38,37.38,37.38s37.38-16.77,37.38-37.38
			C611.68,666.56,579.45,591.09,574.3,579.15z"/>
	</g>
</g>
</svg>
